<?xml version="1.0" encoding="UTF-8"?><svg id="Lag_2" xmlns="http://www.w3.org/2000/svg" viewBox="0 0 380 261.76"><defs><style>.cls-1{stroke:#000;stroke-miterlimit:10;}.cls-2{fill:#696969;}.cls-3{fill:#676767;}.cls-4{fill:#6a6a6a;}.cls-5{fill:#e5e5e5;}.cls-6{fill:#919191;}.cls-7{fill:#7e7e7e;}.cls-8{fill:#818181;}.cls-9{fill:#686868;}.cls-10{fill:#747474;}.cls-11{fill:#656565;}.cls-12{fill:#969696;}.cls-13{fill:#989898;}.cls-14{fill:#8b8b8b;}.cls-15{fill:#9c9c9c;}.cls-16{fill:#a1a1a1;}.cls-17{fill:#848484;}.cls-18{fill:#b4b4b4;}.cls-19{fill:#8a8a8a;}.cls-20{fill:#b5b5b5;}.cls-21{fill:#b7b7b7;}.cls-22{fill:#9d9d9d;}.cls-23{fill:#b9b9b9;}.cls-24{fill:#c2c2c2;}.cls-25{fill:#909090;}.cls-26{fill:#b3b3b3;}.cls-27{fill:#666;}.cls-28{fill:#737373;}.cls-29{fill:#bababa;}.cls-30{fill:#323232;}.cls-31{fill:#333;}.cls-32{fill:#8d8d8d;}.cls-33{fill:#8e8e8e;}.cls-34{fill:#8c8c8c;}.cls-35{fill:#858585;}.cls-36{fill:#a9a9a9;}.cls-37{fill:#b1b1b1;}.cls-38{fill:#aaa;}.cls-39{fill:#bcbcbc;}.cls-40{fill:#d8d8d8;}.cls-41{fill:#a5a5a5;}.cls-42{fill:#b2b2b2;}.cls-43{fill:#aeaeae;}.cls-44{fill:#bbb;}.cls-45{fill:#bfbfbf;}.cls-46{fill:#cacaca;}.cls-47{fill:#cfcfcf;}.cls-48{fill:#cbcbcb;}.cls-49{fill:#c4c4c4;}.cls-50{fill:#d4d4d4;}.cls-51{fill:#d9d9d9;}.cls-52{fill:#afafaf;}.cls-53{fill:#adadad;}.cls-54{fill:#c6c6c6;}.cls-55{fill:#c8c8c8;}.cls-56{fill:#dfdfdf;}.cls-57{fill:#a8a8a8;}.cls-58{fill:#1f1f1f;}.cls-59{fill:#222;}.cls-60{fill:#434343;}.cls-61{fill:#404040;}.cls-62{fill:#090909;}.cls-63{fill:#444;}.cls-64{fill:#454545;}.cls-65{fill:#181818;}.cls-66{fill:#3e3e3e;}.cls-67{fill:#a3a3a3;}.cls-68{fill:#9b9b9b;}.cls-69{fill:#707070;}.cls-70{fill:#a2a2a2;}.cls-71{fill:#959595;}.cls-72{fill:#545454;}.cls-73{fill:#464646;}.cls-74{fill:#9a9a9a;}.cls-75{fill:#898989;}.cls-76{fill:#6d6d6d;}.cls-77{fill:#6e6e6e;}.cls-78{fill:#888;}.cls-79{fill:#878787;}.cls-80{fill:gray;}.cls-81{fill:#555;}.cls-82{fill:#646464;}.cls-83{fill:#636363;}.cls-84{fill:#595959;}.cls-85{fill:#474747;}.cls-86{fill:#2a2a2a;}.cls-87{fill:#5c5c5c;}.cls-88{fill:#272727;}.cls-89{fill:#5a5a5a;}.cls-90{fill:#575757;}.cls-91{fill:#2f2f2f;}.cls-92{fill:#838383;}.cls-93{fill:#4c4c4c;}.cls-94{fill:#5f5f5f;}.cls-95{fill:#616161;}.cls-96{fill:#494949;}.cls-97{fill:#5d5d5d;}.cls-98{fill:#777;}.cls-99{fill:#797979;}.cls-100{fill:#7a7a7a;}.cls-101{fill:#787878;}.cls-102{fill:#525252;}.cls-103{fill:#757575;}.cls-104{fill:#343434;}.cls-105{fill:#4d4d4d;}.cls-106{fill:#4e4e4e;}.cls-107{fill:#515151;}.cls-108{fill:#fff;opacity:.5;}</style></defs><g id="Lag_1-2"><g><path class="cls-50" d="M256.87,261.45h-17.98c-2.15-1.92-3.59-4.28-4.36-7.06-2.76-9.94-7.29-19.3-9.67-29.38-.67-3.94-.37-7.79,.6-11.69,1.82-7.27,.86-14.7,.78-22.07,0-3.74-1.63-6.95-3.3-10.15-1.48-10.06-3.41-20.09-1.91-30.33,0-.5,.02-1.02,.03-1.52,.19-1.46,1.38-2.22,2.32-3.11,3-2.84,5.55-2.08,6.91,1.88,1.5,4.34,1.27,8.97,2.35,13.23-.11-2.3-1.78-4.78,.25-7.15,4.8-.77,5.11,3.44,6.37,6.13,2.15,4.58,1.22,7.83-2.56,11.24-1.35,1.22-2.26,2.44-1.11,4.25,1.83,5.64,6.4,9.94,7.83,15.78,.98,3.46,2.87,6.17,6.28,7.62,3.08,.97,5.42-1.06,8-2.01,3.25-1.2,6.47-2.5,9.89-3.21,1.23,.26,2.5,.16,3.73,.41,.93,.35,1.89,.66,2.74,1.19,1.98,1.22,3.26,2.83,2.74,5.33-.45,2.2-1.86,3.49-4.01,3.9-5.38,1.03-10.62,2.59-16.2,4.4,6.22,3.31,7.31,8.94,8.28,15.31,1.01,6.61,1.63,13.12,1.5,19.76-.14,7.43-1.3,14.28-9.51,17.26Z"/><path class="cls-82" d="M398.75,261.45h-20.98c-2.15-1.66-2.07-3.82-1.75-6.26,.3-2.24,.43-4.58-.21-6.52,.09,2.13,1.81,5-1.79,6.48-2.3,.04-2.37-1.59-2.79-3.3-1.23-5.01-1.5-10.14-1.71-15.22-.58-13.85-1.26-27.68-3.18-41.42-.22-1.58-.44-3.72,1.67-4.19,2.86-.64,2.77,2.18,3.1,2.72-1.59-2.21-.85-5.52,.4-8.84-.21,.63,.1-.28,.05-.09-1.71,5.97-3.9,5.94-6.24,.44-1.73-4.05-1.75-8.41-1.51-12.74-.12,1.52,.29,3.37-1.86,3.77-1.77,.33-2.9-.74-3.22-2.38-.71-3.67-1.96-7.29-1.32-11.14-.28,1.6,.06,3.25-.53,4.82-1.11,1.75-3.36,2.05-4.6,3.67-5.21,2.01-6.73,.87-6.02-4.62,1.47-11.34,1.41-22.71,.64-34.08,.48-1.82,.23-3.72,.57-5.55,1.09-2.46,1.59-5.06,1.83-7.73,.12-1.38,.33-2.91,2.08-2.83,1.71,.08,1.65,1.68,1.95,3,.81,3.51-.31,6.88-.5,9.9,1.23-1.83-.91-5.03,2.03-6.8,1.53-.35,2.8,.53,4.18,.89,1.5,1.13,1.76,2.94,2.46,4.51-1.48-2.89-2.31-6.01-4.27-8.79-1.64-2.32-3.68-5.11-2.17-8.68,.82-1.95-1.33-3.56-1.64-5.48-.22-1.33-.21-2.69,1.1-3.54,1.1-.72,2.33-.57,3.23,.27,5.76,5.32,9.36,11.85,10.68,19.59,.18,1.03-.26,1.94-.93,2.71-.94,3.91,1.3,7.21,2.23,10.7,1.02,3.81,2.68,7.47,4.64,10.94,.37,1.37,1.83,1.83,2.47,2.99,.85,1.53,1.24,3.05,.15,4.61-.71,1.02-1.7,1.56-2.96,1.29-1.79-.39-2.12-1.83-2.29-3.36-.09-.8-.44-1.53-.46-1.58,.52,2.12,.87,5.14,3.45,7.1,5.75,6.49,9.4,13.92,10.88,22.54,.65,3.76,1.71,7.51,2.78,11.21,.47,1.61,.96,3.25,.2,4.93-1.74,1.77-2.85,.86-3.65-.89,2.63,6.83-1.41,14.68,3.09,21.24,.69,1.05,.94,2.22,.93,3.46-.94,1.96-.79,3.9-.19,5.97,1.02,3.55,1.93,7.16,2.08,10.88,.12,2.9,.8,5.28,3.06,7.57,4.08,4.13,4.63,10.02,6.21,15.34,.3,1.01-.67,1.79-1.36,2.5Z"/><path class="cls-28" d="M354.77,166.61c.86-3.44,1.73-6.88,2.59-10.32,1.12,6.05,2.32,11.92,4.15,18.21,2.46-3.21,.41-6.64,2.12-9.76,1.68,7.39,1.75,15.21,5.4,22.94,1.37-3.64,1.08-6.59,1.12-10.04,3,1.98,3.6,4.93,2.81,6.86-1.98,4.83-.86,9.06,.96,13.43,.37,.89,1.03,2.06-.18,2.64-1.41,.67-2.09-.52-2.52-1.65-.75-1.97-.33-4.35-2.74-5.92,2.35,20.45,1.56,41.14,5.3,61.48,3.02,2.33,2.31,4.66,0,6.99h-1c-2.91-2.44-3.93-5.65-4.19-9.34-.7-9.69-1.76-19.36-2.74-29.03-.78-7.69,.08-15.51-.83-21.07,.88,10.31,.71,22.84,2.12,35.29,.52,4.61,.88,9.26,1.56,13.85,.63,4.24,.1,7.89-3.91,10.3h-5.99c-2.39-.98-2.61-3.22-2.31-5.13,1.57-10.02,.77-20.06-.59-29.91-.85-6.22-2.22-12.3-1.66-18.6,.52-5.65-.02-11.32,.05-16.98-.03-.47-.07-.94-.14-1.4-5.18-7.75-1.82-15.27,.63-22.81Z"/><path class="cls-62" d="M329.81,261.45h-41.96c-4.1-5.95-2.45-10.14,4.28-10.87-7.26-2.15-8.05-2.91-9.68-9.29,.14-1.37,1.29-2.08,1.99-3.09,2.34-1.78,3.13-5.2,6.38-6.01,6.61-.14,10.99,4.89,16.51,7.29,2.42,1.05,3.86,3.57,3.97,6.52,.07,1.8,.54,3.56,.98,5.31-.6-3.32,1.91-10.67,4.7-12.15,2.29-1.21,4.04-2.74,5.57-4.77,1.39-1.83,3.39-2.16,5.29-.74,1.76,1.31,1.82,3.12,.63,4.86-1.43,2.09-1.61,3.68-.1,6.19,2.16,3.58,1.71,8.17,2.98,12.21,.47,1.51,0,3.38-1.54,4.55Z"/><path class="cls-80" d="M349.67,132.6c-1.6,7.99,.57,16.08-.73,24.13-.7,4.32-.12,8.84-.12,13.67,1.5-1.79,.8-4.64,2.96-5.8,1.23,5.45,.4,10.83-.02,16.31-.34,4.56-1.95,9.3,.17,13.99,.93,2.06-.12,4.64-1.4,5.95-1.99,2.03-2.18,4.25-2.46,6.67-1.94,13.74-4.46,27.39-5.69,41.21-.44,4.32,.83,9-2.56,12.73h-3c-2.19-1.99-2.61-4.59-2.03-7.23,2.09-9.43,1.25-19.09,2.34-28.62,1.87-16.31,1.04-32.84,3.33-49.13,2-8.41,1.73-17.22,4.65-25.48-1.61,4.41-1.47,9.2-3.28,13.54-1.18,2.82-2.73,4.03-4.43,.25-.22-2.24,.08-4.46,.07-6.7-.02-1.31-.85-2.46-.73-3.79,.4-1.56,.89-3.1,1.22-4.68,2.87-5.61,.26-11.65,1.41-17.39,.16-3.68-.34-7.32-.65-10.97-.86-3.69,1.3-6.99,1.35-10.56,.8-3.17-.56-7.34,4.02-8.78,2.55,.46,2.17,2.51,2.19,4.26,.07,6.08-.13,12.16,.12,18.23,.13,3.04-.06,6.36,3.27,8.19Z"/><path class="cls-55" d="M256.87,261.45c.99-3.69,5.07-5.19,6.14-8.92,2.34-8.17,2.74-16.32,.65-24.58-.65-2.58-1.22-5.18-1.71-7.79-1.11-5.88-4.56-8.85-10.41-8.87-.97,0-2.3,.33-2.52-.92-.3-1.71,1.36-2.23,2.53-2.57,6.06-1.75,12.16-3.34,18.26-4.98,1.87-.5,4.26-.36,4.63-2.97,.38-2.61-2.04-3.1-3.61-4.2,3.16-3.46,4.5-3.38,9.58,.58,1.56,4.39,5.14,6.24,9.3,7.37,.59,.56,1.1,1.17,1.3,1.98-.56,4.43-.62,9.13-5.87,11.06-3.38-.14-6.45,1.39-9.75,1.77-7.45,.87-8.06,1.99-5.62,9.02,.02,.9-.46,1.63-.75,2.44-.18,5.77,1.45,11.44,.88,17.2-.49,5.01-.54,10.19-4.03,14.38h-8.99Z"/><path class="cls-65" d="M329.81,261.45c-1.14-6.38-.96-13.21-6.38-18.1-.73-.66-1.46-1.15,.21-2.06,2.05-1.11,2.37-3.68,3.83-6.29-4.19,.68-7.01,3.19-8.45,5.44-2.56,4-6.8,8.1-3.92,13.92,.71,1.44,1.31,3.68-.81,4.27-2.5,.7-2.17-1.78-2.51-3.28-.89-3.87-3.05-7.32-3.63-11.32-.21-1.46-1.6-2.75-3.05-3.09-5.41-1.27-8.97-5.97-14.22-7.46-2.1-1.58-1.04-3.28-.18-4.96,.55-.66,1.25-1.14,2.13-1.05,6.96,.76,14.11,.64,20.51,4.18,2.49,1.38,4.48,.87,5.83-1.62,2.12-3.92,4.31-7.86,4.52-12.46,.08-1.7,.45-3.25,1.24-4.74,1.7-1.62,2.99-3.91,5.87-3.6,.84,.17,1.49,.62,1.97,1.32,.65,1.24,.19,2.56,.27,3.83,.52,3.9,.07,7.8-.2,11.68-.18,2.68,.36,5.03,1.88,7.2,.31,.69,.36,1.42,.32,2.16-1.54,2.72-.68,5.17,.88,7.55-.3,6.19-.37,12.42-2.1,18.46h-4Z"/><path class="cls-32" d="M227.65,190.54c.42,6.46,1.41,12.95,1.08,19.38-.27,5.19-2.6,10.24-1.92,15.64-.74,6.75-1.95,13.47-.9,20.29,.56,3.62,.48,7.24,.31,10.88-.09,1.92-.82,3.51-2.32,4.73h-5.99c-2.12-3.08-2.19-6.37-1.47-9.97,1.2-5.99,2.12-12.04,3.29-18.04-1.24,5.23-1.84,10.59-2.9,15.86-.46,2.27-.83,4.55-1.78,6.69-1.06,2.4-3.03,3.08-5.32,2.31-2.45-.83-2.28-2.63-1.61-4.86,1.61-5.37,2.29-10.98,3.85-16.35,.93-3.21-1.29-6.21,.04-9.28,1.25-4.02-.79-8.03-.05-12.05,.44-1.57,1.37-2.91,2.07-4.36,1.55-1.53,3.47-2.83,3.33-5.4,.14-4.83,4.89-7.78,5.2-12.64,.06-1.01,3.08-1.25,1.41-3.51-.39-.53,.48-1.56,1.36-1.75,2.02-.43,1.93,1.26,2.32,2.44Z"/><path class="cls-61" d="M330.83,214.53c.33-1,.67-1.99,1-2.99,1.86-3.13-1.87-4.32-2.34-6.66-.63-5.72-.34-11.36,1.59-16.84,2.95-3.5,3.89-7.85,5.04-12.11,.17-.63,.24-1.31,.53-1.89,.98-1.91,1.05-5.37,4.07-4.54,2.5,.69,3.09,3.5,2.14,6.15-2.07,21.48-2.45,43.08-4.59,64.56-.7,7.03-2.3,14.08-1.47,21.24h-3c-1.34-5.99-.62-11.98-.01-17.97-1.37-2.54-1.07-5.28-1-8,.02-.67,.04-1.34,.06-2.01-.02-4.29-.47-8.62,.45-12.84,.61-2.78-1.66-4.09-2.48-6.12Z"/><path class="cls-60" d="M355.78,189.57c0,.33,0,.67,0,1-.48,5.32-.41,10.64,.02,15.97,2.03,18.25,3.5,36.53,2.98,54.92h-4c-2.14-1.54-2.73-3.8-2.37-6.17,.63-4.16,.57-8.36,1.49-12.54,.69-3.17-2.05-6.8,.4-9.2-.65,1.74-.48,4.39-.73,7.01-.68,7.18,.21,15.09-5.78,20.9h-2c-1.38-1.22-1.52-2.84-1.49-4.52,.1-6.46,.05-12.92-.32-19.38-.29-5.03,3.11-9.37,2.76-14.55-.17-2.53,.5-5.22,.89-7.82,1.77-3.04,4.8-5.42,4.79-8.93-1.47,1.34,.5,6.15-4.46,5.08-.71-.91-.63-1.95-.47-3,.6-2.8,.94-5.5,3.11-7.91,1.45-1.61,1.93-4.29,1.25-6.95-.48-1.85-.71-4.24,1.45-5.57,1.76-1.08,3.21-1.22,2.49,1.65Z"/><path class="cls-10" d="M223.9,261.45c.73-10.25-2.24-20.49-.05-30.76,.45-2.13,.26-4.4,2.97-5.14,4.47,11.82,9.49,23.45,12.07,35.9h-14.99Z"/><path class="cls-82" d="M364.78,261.45c2.54-12.87-.24-25.49-1.51-38.21-.67-6.7,.44-13.56-.6-20.28-.64-4.16-.58-7.91,3.58-11.26,2.13,23.36,2.21,46.78,6.53,69.75h-7.99Z"/><path class="cls-37" d="M156,251.49c6.55-10.12,15.98-15.58,27.81-17.18,.93-.47,1.89-.54,2.76,.08,3.79,2.68,7.73,5.16,11.57,7.79,.56,5.34-4.68,12.53-10.26,14.15-3.73,.4-5.43,4.35-8.94,5.13h-5c-.94-1.82-.2-3.12,1.45-3.86,1.37-.61,1.74-1.74,2.12-2.95,.38-.87,.51-1.86,1.26-2.55,3.46-1.82,6.07-4.01,3.64-8.37-1.1-1.3-2.77-.08-3.98-.87-2.96-2.04-5.14-.07-7.13,1.63-1.07,.91-1.97,2.14-2.81,3.35-.57,.73-.98,1.6-1.84,2.07-3.85,.57-4.82,3.97-6.46,6.67-1.04,1.71-1.76,3.69-4.39,2.61-3.3-2.65,1.61-5.09,.2-7.69Z"/><path class="cls-100" d="M398.75,261.45c-1.31-4.08-2.54-8.19-4.03-12.21-.21-.56,.41-5.01-2.58-1.27-.71,.88-1.29-.57-1.48-1.27-.65-2.39-1.63-4.79-1.72-7.21-.19-5.32-1.05-10.44-3.15-15.32-.81-1.88,.54-3.14,.99-4.66,3.48-1.69,4.92,.78,5.98,3.24,1.09,2.55,1.43,5.33,1.36,8.15-.07,2.7,.44,5.29,1.54,6.98,.31,.7,.31,.71,.31,.71,.15,0,.21-.19,.01-.42-.8-.95-1.28-2.12-1.52-3.24-.32-1.55-.78-3.48,.96-4.49,2.01-1.16,2.92,.64,3.91,1.95,4,7.57,4.68,16.19,7.66,24.09,.66,1.75,.42,3.63-1.24,4.98h-6.99Z"/><path class="cls-11" d="M213.9,228.49c1.14,8.31-2.21,15.92-3.74,23.81-.22,1.12-.63,2.2-.95,3.3,3.32,.28,4.21-1.45,4.78-4.24,1.74-8.52,3.8-16.98,6.17-25.42,1.65,11.99-1.52,23.68-2.25,35.52h-12.99c-2.98-2.75-.08-5.82-.4-8.7,2.4-4.37,3.45-9.18,4.68-13.92,.27-2.26,1.03-4.43,1.27-6.73,.19-1.78,.69-3.93,3.42-3.61Z"/><path class="cls-9" d="M348.85,208.55c0,.96-.01,1.92-.02,2.88,1.04,.81,2.02,1.63,.94,3.08-.37,5.63,.71,11.89-1.4,16.76-4.34,10.03-.73,20.24-2.58,30.17h-2c-2.62-1.95-2.05-4.66-1.77-7.31,.21-1.99,1.13-4.13-1.15-5.61,.73-14.19,1.71-28.34,5.86-42.06,1.35,.03,2.62,.14,2.12,2.07Z"/><path class="cls-13" d="M210.81,239.44c-.33,4.94-2.49,9.36-3.9,14-2.17,.76-2.63-1.51-3.96-2.21-.34-.4-.6-.89-1.04-1.21-.02,.04-.46-.16-.45-.11-3.53,4.19-6.01,9.38-11.52,11.55h-4c-1.54-2,.66-3.67,.49-5.54,.16-.15,.32-.3,.48-.45,4.82-3.18,8.15-7.51,10.05-12.94-.57-6.4,6.82-13.08,12.27-11.11,1.36,1.21,1.15,2.61,.73,4.2-.35,1.31-.53,2.8,.85,3.83Z"/><path class="cls-22" d="M267.82,228.54l-1.01-1.03c1.25-3.91,.98-9.03,7.16-9.04,1.53,.11,2.24,1.23,2.92,2.38,.48,1.11,.59,2.27-.26,3.19-2.89,3.16-2.93,6.53-.91,10.1,.15,1.66,1.41,3.09,1.07,4.86,.29,1.23,.97,2.29,1.54,3.39,1.9,4.44,.62,9.33,1.99,13.84,1.1,1.86,.63,3.58-.48,5.23h-7.99c-3.7-2-3.74-5.23-2.89-8.72,2-8.18,.68-16.2-1.15-24.2Z"/><path class="cls-91" d="M347.79,261.45c1.52-3.89-.7-8.63,3.24-12.13,1.93-1.71-3.09-.02-1.78-2.34,3.41-6.02,1.63-13.61,5.53-18.96v33.42h-6.99Z"/><path class="cls-44" d="M413.73,261.45h-3c-3.59-4.24-2.5-9.93-4.57-14.65-2.16-4.93-2.9-10.34-4.99-15.31-1.21-3.01-2.68-5.95-2.91-9.27,.11-2.13-.35-4.31,.49-6.39,.29-.43,.68-.75,1.17-.94,2.09-.39,3.07,.97,3.71,2.57,1.54,3.84,3.36,7.64,4.01,11.73,.32,2.04,1.14,3.36,2.63,4.52,1.21,5.56,2.01,11.21,3.78,16.65-.09,3.7,3.41,7.51-.32,11.1Z"/><path class="cls-23" d="M267.82,228.54c4.77,6.68,4.59,14.33,3.57,21.83-.53,3.86-.76,7.43,.47,11.09h-5.99c2.98-10.83,1.54-21.93,1.96-32.92Z"/><path class="cls-39" d="M405.74,261.45c-1.55-9.98-4.59-19.54-8.11-28.97-5.24-7.45-6.2-16.38-8.59-24.83-.31-.83-.56-1.66-.42-2.57,.47-1.47,1.14-2.75,2.86-3.06,4.25,1.65,3.31,6.02,4.76,9.13,2.02,7.4,2.56,15.2,5.95,22.24,1.76,7.93,5.03,15.43,6.6,23.42,.32,1.61,1.36,3.09-.05,4.63h-3Z"/><path class="cls-27" d="M189.93,261.45c3.66-5.01,7.32-10.01,10.98-15.02,1.88-.61,2.57,.52,2.98,2.05,0,.66,.01,1.33,.02,1.99,.44,4.05,.99,8.13-2.99,10.98h-10.99Z"/><path class="cls-44" d="M411.71,223.56c1.33,1.64,2.96,3.12,3.94,4.95,2.23,4.15,5.52,5.73,10.07,4.99v9.98c-1.63,.98-2.53-.07-3.57-1.13-1.34-1.37-2.9-2.44-4.9-2.67-.56-.25-1.12-.51-1.74-.51-2.6,1.22-4.69,1.05-4.93-2.34-.15-2.13-1.86-3.48-2.22-5.45-.06-1.65,.53-3.21,.51-4.88-.02-1.64,.39-3.42,2.84-2.93Z"/><path class="cls-94" d="M425.72,246.48c0,3-.38,6.05,.08,8.97,.83,5.17-.95,7.13-6.08,6-4.92-3.38-5.09-7.92-3.2-12.97,.33-.38,.74-.65,1.18-.85,.24-.18,.65-.26,.79-.5q2.89-5.22,7.23-.66Z"/><path class="cls-35" d="M178.63,255.37c2.14,.96,.94,2.06-.03,2.86-1.46,1.19-3.09,2.17-4.65,3.23h-4c-.9-1.99-2.8-2.96-4.34-4.32-1.73-1.89-1.18-3.7,.36-5.27,1.71-1.73,2.9-3.91,4.85-5.41,2.41-.37,4.95-2.21,7.11,.56,1.01,2.71-.49,5.64,.69,8.35Z"/><path class="cls-14" d="M408.74,261.45c-2.3-7.57-4.64-15.13-6.88-22.72-.51-1.73-.69-3.56-1.02-5.35,.4-1.13-.63-3.22,1.94-2.9,3.05,10.22,7.12,20.18,7.97,30.96h-2Z"/><path class="cls-75" d="M417.87,248.46c-.29,4.46,.67,8.74,1.86,12.99h-5.99c-.66-3.66-1.33-7.32-1.99-10.99-.78-5.16,.2-6.78,4.74-7.75,2.02,1.54,2.83,3.37,1.38,5.74Z"/><path class="cls-58" d="M283.89,241.62c1.03,3.5,3.1,5.84,6.98,5.82,3.87-.01,2.76,4.8,5.88,5.7-2.52,.22-4.39-1.88-7.37,1.02-2.96,2.87,.65,5.4-1.53,7.29h-1c-1.92-1.71-3.43-3.69-3.34-6.39,.08-2.48-1.11-4.36-2.46-6.22,.2-2.71-2.22-6.44,2.84-7.23Z"/><path class="cls-103" d="M283.77,248.57c2.13,4.03,2.48,8.49,3.08,12.88h-6.99l-1.94-4.04c1.4-1.84,.88-4.22,1.78-6.21,.81-1.79,1.58-3.51,4.08-2.63Z"/><path class="cls-81" d="M171.67,247.32c-1.08,3.41-6.42,4.64-4.85,9.42,1.59,3.12-1.82,3.2-2.87,4.72h-4c-2.14-3.17,.5-5.37,1.69-7.79,1-2.02,2.72-3.57,4.12-5.33,.43-.55,.86-1.1,1.29-1.64,1.33-.47,2.62-.88,3.72-1.93,1.17-1.12,2.35-.98,2.78,.89-.18,1.06-.74,1.69-1.88,1.66Z"/><path class="cls-73" d="M373.77,261.45c0-2.33,0-4.66,0-6.99,1.89-3.93,.14-8.45,2.09-13.8,1.68,7.75,2.1,14.24,1.92,20.78h-4Z"/><path class="cls-75" d="M425.72,246.48c-1.4-.39-2.81-.78-4.47-1.24-1.02,2.04-.17,4.31-.24,7.79-1.1-2.2-1.69-3.38-2.28-4.55-.27-3.33-4.19-6.28-1.02-9.95,5.23-2.46,5.19,3.56,8.02,4.96v3Z"/><path class="cls-85" d="M340.87,248.54c2.62-1.14,.03-4.13,2.63-6.06,1.16,6.61-.55,12.86,.29,18.98h-4c.36-4.31,.72-8.61,1.07-12.92Z"/><path class="cls-79" d="M165.77,248.34c-.19,5.14-5.94,7.83-5.81,13.11h-5c-1.04-1.52-.45-2.49,1.06-3.16,2.34-.7,3.3-2.81,3.91-4.71,.98-3.05,2.96-4.53,5.83-5.25Z"/><path class="cls-8" d="M200.92,261.45c1.86-3.43,.49-7.73,2.99-10.98,1.52,.46,2.08,1.89,2.99,2.96-.98,2.59-2,5.18-1.99,8.02h-4Z"/><path class="cls-74" d="M156.03,258.3c-.35,1.05-.71,2.1-1.06,3.16h-5c2.68-2.92,2.61-7.5,6.03-9.97,3.36,2.26,.31,4.54,.02,6.81Z"/><path class="cls-105" d="M163.96,261.45c.35-1.94,1.82-3.21,2.87-4.72,1.52-.78,3.13-1.27,4.27,.44,1.14,1.71-.28,2.98-1.14,4.28h-5.99Z"/><path class="cls-32" d="M178.94,261.45c3.01-3.41,6.02-6.82,9.03-10.23,.2,.09,.39,.18,.59,.28-.55,1.32-1.1,2.64-1.65,3.97,0,0,.02-.03,.02-.03-.43,2.6-2.26,4.28-3.99,6.02h-4Z"/><path class="cls-37" d="M182.94,261.45c.06-2.85,1.87-4.54,3.99-6.02,1.31,2.28,.29,4.17-.99,6.02h-3Z"/><path class="cls-46" d="M207.92,232.51c-1.3,0-3-.33-3.46,1.16-1.26,4.08-5.33,5.64-7.5,8.85-6.78,1.1-9.74-3.93-13.15-8.22,1.58-4.24,5.6-4.5,8.93-4.45,3.56,.05,4.62-1.5,5.2-4.32,3.64-1.56,4.7-4.82,6.06-8.22,3.82-9.57,4.54-19.87,7.54-29.61,.91-2.97,.7-6.1,1.41-9.09,1.78-3.88,.58-8.02,1.03-12.01,.9-1.41,1.58-3.24,3.85-1.99,.99,.8,1.4,1.96,1.3,3.11-.64,7.51,1.5,15.2-1.69,22.55-1.21,2.79-1.26,5.9-.62,8.84,.94,4.29,.68,8.4-.88,12.46-.33,1.33-.67,2.65-1,3.98-1.19,3.35-1.45,6.92-2.42,10.33-.79,2.77-1.92,5.22-4.6,6.65Z"/><path class="cls-16" d="M245.72,19.75c.34-.33,.69-.66,1.03-.99,2.21-2.87,5.96-3.66,8.38-6.26,.8-.6,1.73-.74,2.69-.8,3.82,.22,7.59,.27,10.51-2.85,.58-.62,1.45-1.22,2.19-.86,4.95,2.44,7.53-1.39,10.45-3.97,3.49-3.08,5.69-2.98,8.8,.83,0,4.32-3.94,4.71-6.52,6.44-1.28,1.27-4.67,2.22-.69,4.33,1.65,4.19,4.91,7.67,5.46,12.35-.5,1.18-1.36,2.12-2.14,3.12-1.26,.92-2.74,1.23-4.22,1.55-2.47-.13-5.32-1.98-6.97,1.58-.38,.27-.81,.44-1.26,.53-.96,.25-1.77,.7-2.61,1.3-3.3,2.33-6.46,1.03-6.43-2.91,.01-2.02-.23-2.48-2.1-2.46-1.42,.01-2.57-.96-3.25-2.07-2.11-3.4-5.36-4.78-9.05-5.5-1.54-.96-4.42-.22-4.25-3.35Z"/><path class="cls-97" d="M281.84,9.83c2.32-1.67,4.64-3.33,6.96-5,1.71-4.84,6.49-3.07,9.78-4.18,2.74-.92,6.18-.89,9.23,.25,5.88,1.28,11.94,2.04,16.83,6.06,.08,2.08-.77,3.33-3.01,3.33-1.43,0-2.86-.04-4.21,.52-3.18,1.53-3.92,4.98-5.9,7.46-.64,.45-1.31,.79-2.08,.94-4.18,.21-8.34-.41-12.56,.57-2.89,.67-5.9-.07-7.02-3.61,.49-3.57,3.97-2.2,5.48-3.4-1.8,.66-4.19,.79-6.06,2.39-2.61,2.23-5.72,1.14-8.01,.02-3.06-1.5,.02-3.56,.56-5.36Z"/><path class="cls-36" d="M219.08,50.88c.63-1,1.25-2.01,1.88-3.01,1.03-.7,1.82-1.93,3.35-1.55,3.81,3.48,3.67,4.29,1.04,8.31-4.65,7.12-7.19,14.89-5.37,23.53,.42,1.99,.51,3.93,.2,5.91-.14,.48-.32,.95-.53,1.41-2.32,7.63-.75,15.38-.7,22.3,.42-2.87-.55-6.47-.5-10.12,.03-2.69,.6-4.49,3.45-5.01,.57,.06,1.08,.27,1.54,.61,1.34,2.33,1.79,4.9,1.99,7.53,2.08,10.56,.89,20.91-2.03,31.15-.45,1.57-.45,3.31-2.11,4.26-.96,.36-1.85,.26-2.67-.37-1.8-11.77-3.25-23.57-4.41-35.42-1.17-12.01,0-23.94,.83-35.87,.33-4.71,2.19-9.25,4.05-13.65Z"/><path class="cls-51" d="M219.08,50.88c-4.49,23.03-4.21,46.15-1.44,69.33,.61,5.08,.89,10.2,1.32,15.31,5.55,7.81,3.46,12.99-3.04,16.09,1.05-9.24,1.49-18.46-.01-27.71-1.4-8.61-2.8-17.19-3.57-25.94-1.02-11.69,.61-23.15,.94-34.7,.12-4.36,2.76-8.75,5.8-12.38Z"/><path class="cls-37" d="M342.98,17.74c11.66,9.85,20.67,21.58,25.75,36.1,1.2,3,.83,5.1-3,5.2-4.87-2.28-5.12-7.98-8.43-11.45-.97-1.02-1.6-2.44-2.57-3.55-4.14-4.37-6.9-10.12-12.73-12.82-1.85-1.58-3.25-3.57-4.82-5.39-1.38-1.6-2.09-3.38,.34-4.82,5.54,1.08,8.85,5.44,12.65,8.94,1.56,1.44,3.12,2.94,4.63,4.39,.02,.02,.08,.08,.14,.13-.22-.2-.44-.4-.67-.62-4.4-3.92-8.34-8.29-13.17-11.75-2.28-1.63-6.28-.61-7.03-4.53,.1-.8,.51-1.4,1.18-1.83,3.08-1.29,5.13,1.43,7.73,2Z"/><path class="cls-52" d="M377.69,93.72c2.38,8.14,2.87,16.6,4.12,24.93,.61,2.74,1.84,5.51-.4,8.11-2.13,1.17-2.97-.69-4.14-1.77-2.87-2.7-2.63-6.58-3.78-9.94-.26-2.45-.7-4.7-1.88-7.07-1.9-3.84-.65-8.26-.58-12.45,.2-.44,.45-.86,.73-1.27,1.36-.86,2.54-1.96,3.83-2.92,1.84-.21,1.43,1.55,2.1,2.38Z"/><path class="cls-21" d="M307.81,.9c-6.61,0-13.21,0-19.01,3.93-3.76-1.3-6.75-.21-9.26,2.8-2.03,2.45-4.56,2.93-7.87,3-3.1,.06-6.32,2.16-9.17,3.89-2.06,1.25-3.28,.89-4.64-.67-.1-1.7,.91-2.88,2.17-3.61,3.93-2.27,7.43-5.53,12.62-4.88,2.91,.36,5.2-1.46,7.13-3.55,.88-.45,1.78-1.32,2.64-1.29,8.46,.3,16.95-1.48,25.38,.38Z"/><path class="cls-56" d="M212.95,178.61c1.55,4.54-.16,8.94-1.24,13.11-2.65,10.28-3,21.04-7.15,31.03-1.62,3.91-2.98,5.2-6.62,2.77,6.51-13.45,10.55-27.67,13.36-42.29,.31-1.59,1.08-3.09,1.64-4.63Z"/><path class="cls-48" d="M411.71,223.56c-1.36,2.51,2.81,6.42-2.05,8.04-.46,.92,.26,2.19-.87,2.9-.65,.25-1.29,2.34-1.96,.36-2.17-6.4-4.08-12.89-6.09-19.34-1.45-3.58-4.07-7.06-.97-11.04,3.15,6.88,6.06,13.91,11.94,19.07Z"/><path class="cls-47" d="M380.76,126.67c.81-2.61,1.08-5.3,1.05-8.02,1.26,1.63,1.64,3.59,1.97,5.55,1.93,11.35,5.42,22.43,5.67,34.08,.11,5.26,3.41,9.96,3.22,15.35-.43,.35-.92,.46-1.46,.32-1.03-.44-1.63-1.25-1.98-2.28-1.44-6.57-3.75-12.97-4.08-19.77-.1-2.03-.99-3.8-1.85-5.58,1.66-4.42-.28-7.85-3.11-11.02-.5-2.91-1.08-5.85,.57-8.62Z"/><path class="cls-54" d="M377.69,93.72c-.61-.68-1.22-1.37-1.83-2.05-3.34-2.33-5.07-5.57-5.49-9.56,1.25-5.57-.18-10.61-3.07-15.36-.19-3.03-3.93-5.42-1.57-8.9,1.75-.77,3.4-1.63,3-4,4.3,13,8.55,26,8.96,39.87Z"/><path class="cls-51" d="M223.92,46.81c-.99,.35-1.97,.71-2.96,1.07,6.07-7.61,10.08-16.82,17.92-23.06,1.15,.19,1.79,.92,2.14,1.97,.14,.49,.17,.98,.1,1.49-.13,3.37-2.85,5.49-4.08,8.33-2.03,1.06-2.75,3.17-3.93,4.92-1.78,1.12-3.26,2.55-4.61,4.16-1.21,1.45-2.65,2.39-4.58,1.13Z"/><path class="cls-40" d="M279.8,1.81c-2.26,3.55-5.25,5.64-9.69,5.02-2.51-.35-4.6,.76-5.92,2.66-1.62,2.34-3.88,3.4-6.32,4.35-.98-.06-1.95-.12-2.93-.18-.44-.25-1.1-.24-1.14-.96,1.48-3.71,4.02-5.94,8.2-5.89,2.04,.02,3.94-.19,5.08-2.27,.74-1.34,2.12-1.76,3.42-1.21,3.48,1.49,6.38,.05,9.29-1.54Z"/><path class="cls-50" d="M215.93,151.61c4.24-4.76,5.01-10.17,3.04-16.09,.61-.02,1.21-.04,1.82-.06,4.77,4.11,3.5,9.12,2.13,14.15l-.03,.05c-2.6,2.83-2.36,6.4-2.61,9.86-.17,2.25,.03,4.9-3.37,5.09-.98,.66-1.95,1.33-2.93,1.99,.65-4.99,1.3-9.99,1.95-14.98Z"/><path class="cls-49" d="M391.74,173.59c.31,0,.62,.02,.92,.02,.38,2.29,.76,4.58,1.14,6.87,1.44,2.42,1.69,5.06,1.37,7.79-2.07,1.72-3.29-.26-3.65-1.44-.83-2.77-2.92-4.64-4.22-7.03-2.65-3.76-4.21-8.08-6.2-12.18-.68-1.4-1.77-2.67,.21-3.65,1.6-.8,2.86,.02,3.6,1.56,1.59,3.27,3.55,6.22,6.82,8.06Z"/><path class="cls-31" d="M316.98,8.76c2.29-1.7,5.63,1.04,7.66-1.8,3.72,1.97,7.44,3.95,11.15,5.92,2.01,1.29,1.5,2.4-.25,3.42-3.64,1.79-7.05,.99-10.16-1.18-2.14-1.5-4.33-2.86-6.72-3.9-.95-.56-1.58-1.33-1.69-2.46Z"/><path class="cls-49" d="M399.77,204.49c.32,3.68,.65,7.36,.97,11.04-.31,0-.62-.01-.93-.02-5.14-3.55-8.76-21.05-5.39-26.04,3.37-.32,3.19,2.09,2.94,4.14-.35,2.84,.11,5.43,1.38,7.93,.34,.98,.68,1.96,1.03,2.95Z"/><path class="cls-29" d="M239.92,27.84c-.35-1.01-.69-2.01-1.04-3.02,1.58-2.64,4.62-3.31,6.85-5.07,1.72,.69,3.44,1.39,5.16,2.08-.09,.48-.29,.92-.61,1.29-1.66,1.42-3.72,2.24-5.26,3.9-1.31,1.42-3.15,2.07-5.09,.81Z"/><path class="cls-29" d="M253.8,12.71c.38,.32,.76,.64,1.14,.96-1.33,3.04,3.73,2.16,2.74,5.55-3.53-3.07-7.24-2.4-10.92-.46,.48-4.19,3.98-4.87,7.05-6.05Z"/><path class="cls-48" d="M398.74,201.54c-1.66-1.78-1.98-3.99-1.99-6.3,0-2.13-.08-4.24-2.04-5.67-.19-.18-.26-.36-.21-.56,.05-.2,.1-.3,.15-.3-.28-2.74-.57-5.49-.85-8.23,2.15,4.52,4.31,9.02,4.26,14.24-.02,2.27,.44,4.54,.68,6.82Z"/><path class="cls-4" d="M335.81,15.91c0-1.01,0-2.02-.01-3.03,2.91,.86,5.02,2.9,7.19,4.86-2.53,.78-4.71-1.22-7.18-.89-.36-.21-.47-.42-.35-.63,.12-.2,.24-.31,.36-.31Z"/><path class="cls-48" d="M223.82,100.81c-1.14-2.17-.85-4.52-.84-6.84-.19-1.34,.29-2.5,1.01-3.59,.54-.6,1.22-.94,2.01-1.05,8.16-.26,16.3-.91,23.59,4.24,5.45,3.85,11.5,5.63,18.27,3.39,2.15-.71,4.58-1,6.51,.94,1.42,2.37-.18,3.93-1.53,5.52-4.87,5.76-5.93,12.81-7.44,19.91-1.78,8.36-2.24,17.11-6.15,24.96-.94,1.88-1.85,3.71-4.14,4.55-1.77,.65-3.58,1.72-2.98,4.26,.54,2.3,2.1,3.48,4.3,3.85,2.31,.38,4.55,.88,6.6,2.08,2.07,1.2,3.93,2.49,3.85,5.29-.08,2.83-1.82,4.06-4.27,4.7-4.6-.12-9.2,.55-13.8-.79-2.66-.78-5.21,.56-7.26,2.49-2.74-.14-4.61,3.34-7.68,1.88-1.87-1.43-1.79-2.73-.21-4.52,5.65-6.39,5.4-10.58-.78-17.46-1.03-.51-1.41-1.39-1.38-2.48,.06-1.28,1.28-1.91,1.71-2.96,1.59-3.86,3.97-3.84,7.08-1.74,4.34,2.95,9.29,.69,9.42-4.59,.1-4.11,1.52-7.3,4.02-10.38,2.21-2.73,3.56-6.01,4.27-9.47,1.09-5.35,.21-6.61-5.25-7.81-3.12-1.1-4.5-3.29-5.08-6.59-.88-5-2.71-9.6-8.79-10.4-2.19-1.33-4.67-1.92-7.02-2.83-1.99-.11-3.9-.06-4.91,2.12-1.36,.83-1.41,2.89-3.16,3.34Z"/><path class="cls-45" d="M233.89,176.59c1.93-1.39,2.96-4.1,5.89-4.04,.28,.25,.54,.51,.78,.8,.4,.62,.61,1.42,1.47,1.63,3.87-.18,6.57,.55,7.28,5.33,.7,4.74,3.59,6.55,8.48,6.75,3.65,.15,7.32-.16,10.95,.23,3.3,.36,5.81,1.64,5.15,5.69-1.44,2.15-4.57,1.42-6.04,3.52-6.59,1.63-12.65,4.68-18.95,7.05-2.51-1.35-3.02-4-4.23-6.24-.86-1.6-.57-3.98-2.89-4.69-2.47-5.42-6.87-9.9-7.89-16.03Z"/><path class="cls-34" d="M267.85,196.5c.56-2.82,3.03-2.46,4.97-2.98,1.94-2.42,4.32-2.3,6.86-1.21,2.67,.91,5.48,.95,7.62-.81,3.94-3.25,8.77-4.67,13.11-7.08,6.68-3.71,11.27-8.92,13.14-16.64,1.75-7.22,5.33-13.87,7.27-21.12,1.06-3.95,2.47-7.83,3.36-11.87,.43-1.95,.39-4.5,3.48-4.49,2.66,1.82,1.26,4.59,1.64,6.95,.06,1.52-.35,2.96-.63,4.43-1.53,7.98-3.61,15.76-3.78,24.08-.26,12.15-7.66,19.99-18.44,24.76-2.49,1.1-4.76,2.29-6.96,3.97-4.75,3.6-10.02,6.29-16.28,6.02-1.44-.59-1.7-2.68-3.53-2.81-2.52-2.5-5.41-3.42-8.83-2.04-.99,.28-1.99,.56-2.98,.85Z"/><path class="cls-51" d="M223.82,100.81c.14-1.62,.25-3.26,2.03-4.07,.81-.1,1.46,.2,1.98,.79,1.52,2.16-1.15,4.77,.74,6.89-.66,3.75,1.88,6.6,2.79,9.91,.05,5.71,.59,11.42-1.09,17.04-.78,2.63-.21,5.45,1.26,7.63,2.74,4.07,2.81,8.21,1.38,12.62,0,.99,0,1.99,0,2.98,.21,3.64,2.3,6.96,1.92,10.7-.15,1.42,0,3.39-2.13,3.23-1.65-.12-1.72-1.87-1.71-3.16,.03-4.82-.23-9.61-1.53-14.27-.48-1.71-.68-3.9-2.8-4.33-1.98-.41-2.5,1.84-3.74,2.83-.71-4.72-1.42-9.43-2.13-14.15-.33-5.39,1.37-10.48,2.69-15.54,1.67-6.43,1.03-12.73,.34-19.11Z"/><path class="cls-44" d="M216.91,164.6c1.13-2.5,1.19-5.18,.96-7.8-.35-3.93,1.05-6.38,5.02-7.14,.48,10.37,.05,20.82,3,30.95-1.11,5.74-4.66,10.87-4.26,16.98,.12,1.92-1.99,2.05-2.51,3.29-.74,1.81-1.68,3.74-.29,5.71-.02,2.21-1.07,3.81-2.89,4.97-.07-5.88-1.06-11.66-1.96-17.45-.31-1.98,.28-3.92,1.35-5.67,.96-1.58,1.82-3.35,1.45-5.14-1.31-6.26,.62-12.46,.13-18.69Z"/><path class="cls-70" d="M218.83,206.59c-2.35-1.67-2.54-4.1-1.04-6.04,1.9-2.45,2.21-5.04,2.1-7.86-.19-5.13,3.62-8.25,5.99-12.09,.32,3.36,2.48,6.4,1.76,9.94-1.02-.71-2.72-2.44-1.8,.72,.61,2.09,1.32,4.02,.62,6.74-.7-1.47-1.2-2.53-1.84-3.87-1.22,2.05-.49,3.89-.78,5.6-.13,.77-.6,2.17-.65,2.16-4.33-1.06-3.37,2.75-4.37,4.7Z"/><path class="cls-67" d="M241.78,192.62c1.49-1.79,1.78-.16,2.21,.81,1.51,3.43,2.51,7.11,4.9,10.12-4.98-1.95-4.82-7.24-7.12-10.94Z"/><path class="cls-72" d="M366.75,123.71c-1.85-7.78-4.73-15.01-11.18-20.78-.19,11.75,8.19,21.05,8.05,32.5-1.85-3.59-3.7-7.19-5.55-10.78-3.87-2.81-4.13-7.44-5.48-11.41-2.46-7.23-4.5-14.61-5.29-22.26,.18-6.6,.23-6.67,5.41-7.46,3.23,1.16,3.36,4.55,4.84,6.94,1.45,2.34,2.51,4.93,3.84,7.35,7.29,4.42,8.72,12.23,11.27,19.4,2.62,5.23,1.05,10.98,1.88,16.46,.3,1.97-.58,5.25-4.4,4.13-2.12-4.45-4.01-8.96-3.4-14.06Z"/><path class="cls-57" d="M391.74,173.59c-3.24,.97-4.08-2.09-5.82-3.56-1.47-1.24-1.93-3.44-4.18-4.59,.34,5.68,5.75,8.38,6.93,13.22-.66,2.08,.58,3.61,1.53,5.22,2.87,4.84,2.54,10.38,3.4,15.65,.25,1.55-.45,2.53-1.89,3.03-.34,1.01-.68,2.02-1.01,3.02-4.95-1.67-6.12-5.55-3.03-10.1-1.29-5.6-2.58-11.2-3.85-16.8-1.81-7.99-5.08-15.23-10.96-21.11-.75-1.79-1.65-3.88,1.75-2.9,3.75,1.08,3.95-.95,3.48-3.59-.68-3.84-1.82-7.61-1.68-11.57,1.75-1.86,3.19-3.96,4.73-5.99,.17-.23,.61,.02,.78,.34,.14,.25,.1,.52-.14,.82,2.75,3.14,4.24,6.72,3.97,10.95-1.16,9.19,1.97,17.55,4.99,25.94,.33,.67,.67,1.34,1,2.02Z"/><path class="cls-84" d="M348.85,208.55c-.88-.51-1.89-.89-2.12-2.07-1.81-4.59,3.8-7,3.5-11.2-1.95-.68-1.17,1.82-3.33,1.71,3.52-10.6,3.54-21.57,4.86-32.39,1.13,.47,.37,3.78,3,2.01,1.5,5.72-1.97,10.86-2.18,17.4,1.61-3.27,2.76-3.82,3.59-.66,.56,2.13,.83,4.22-.4,6.22-1.16-1.05-1.6,.16-1.55,.76,.56,6.78-3.72,12.11-5.38,18.22Z"/><path class="cls-14" d="M390.83,207.45c2.75,8.22,5.85,16.34,6.8,25.04-3.28-.62-1.4,1.7-1.07,2.31,1.73,3.18,2.06,6.5,1.38,11.64-2.54-4.74-4.49-8.13-5.33-12.33-1.03-5.16-.41-11.14-5.84-14.59-.33-1-.66-2-.99-3-.22-1.76,.58-3.36,.26-5.3-.51-3.11,1.1-5.14,4.78-3.77Z"/><path class="cls-101" d="M377.82,139.66c.59,5.42,3.06,10.41,3.53,15.9,.18,2.13-.21,3.72-1.92,4.6-1.87,.96-2.28-1.27-3.39-2.05-.91-.64-1.5-4.35-3.18-.52-3.67-4.61-2.58-11.07-6.48-15.66,4.73,2.2,5.12,7.43,8.38,11.38,1.07-3.32-1.14-4.88-1.9-6.86,.21-.86-.13-1.76,.14-2.62,.71-1.55,.37-3.19,.34-4.79-.04-2.86,1.06-3.96,3.87-2.81,.82,1.03,.9,2.2,.6,3.42Z"/><path class="cls-99" d="M390.83,207.45c-3.99,1.74-2.08,6.76-5.04,9.07-.53-4.25-3.32-7.96-2.72-12.52,.64-4.78,2.31-9.61-.13-14.56,2.1,1.87,1.86,5.12,4.75,6.06-.68,3.87,2.25,6.66,3.03,10.1,.04,.62,.08,1.24,.12,1.85Z"/><path class="cls-22" d="M348.68,90.78c2.22,11.54,6.05,22.63,9.38,33.86-1.17,.61-1.71-.19-2.25-1-1.83-1.24-2.65-3.13-2.9-5.17-.41-3.37-2.2-5.59-5.14-7.05-2.24-2.55-1.04-5.71-1.58-8.55-.68-3.54-1.16-7.11-2.09-10.64-.81-3.07-2.27-6.94,2.27-8.94,4.15,1.45,.85,5.21,2.32,7.48Z"/><path class="cls-98" d="M349.88,110.79c1.54-.6,2.44-.15,2.87,1.53,.96,3.79,2.04,7.55,3.07,11.32-4.2,4.01-.99,8.98-1.59,14.31-4.52-6.39,.36-13.24-2.97-18.9-.5,2.51-1.02,5.11-1.54,7.71-.65,.23-1.19,.08-1.64-.44-1.32-5.4-1.27-10.64,1.81-15.53Z"/><path class="cls-22" d="M348.8,126.67c.3,.02,.61,.05,.91,.09-.01,1.95-.03,3.89-.04,5.84-2.23,.85-3.48,2.8-5.46,5.72,.98-12.69,.5-24.12,.55-35.55-1.1-1.36-1.38-2.74-.11-4.16,2.93,.21,2.09,2.55,2.08,4.09-.06,6.77,2.11,13.41,1.1,20.23-.19,1.31,.17,2.61,.97,3.73Z"/><path class="cls-6" d="M373.72,144.66c-.29,.6-.57,1.19-.86,1.79-4.52-7.74-6.46-16.37-9.62-26.07,1.89,1.79,2.7,2.56,3.51,3.32,.89,4.74,2.27,9.33,4.12,13.79,3.53,1.37,3.17,4.28,2.85,7.17Z"/><path class="cls-84" d="M355.8,206.53c-1.86-5.32-1.15-10.64-.02-15.97,.09,5.32,1.77,10.64,.02,15.97Z"/><path class="cls-83" d="M283.77,248.57c-2.59,2.53-2.91,6.55-5.85,8.85,.07-5.12-1.26-10.05-1.9-15.08,.4-4.16,3.01-7.43,4.5-11.15,1.92-1.48,3.73-3.13,6.04-4.02,3.75,.18,3.75,2.07,2.51,4.95-1.05,2.46-4.08,4.08-3.23,7.36-.65,.71-1.29,1.42-1.94,2.14-1.91,2.28-.63,4.63-.13,6.95Z"/><path class="cls-17" d="M285.83,239.48c-3.92-1.37-1.99-3.42-.83-5.65,.86-1.65,4.38-2.53,1.82-5.35-.43-.43-.65-.96-.67-1.57,1.69-3.08,.84-6.52,1.42-9.74,.47-2.55,.47-6.09,4.92-4.61,1.66,4.49,.52,9.13,.78,13.69-.11,.98-.54,1.77-1.37,2.32-.35,1.64-.69,3.28-1.04,4.92-.94,2.62-2.66,4.57-5.04,5.98Z"/><path class="cls-103" d="M341.82,110.64c-.02,3.69-.04,7.37-.07,11.06-2.04,.74-2.52-.83-3.12-1.98-2.09,4.54,.68,9,.67,13.59-.19,2.98-.75,5.75-2.18,8.55-2.28,4.45-2.57,9.69-3.39,14.5-.88,5.15-2.16,10.35-2.44,15.63-1.05,6.59-4.02,12.05-9.57,15.94-.84,.59-1.34,1.42-1.89,2.23-1.34,1.82-3,2.71-5.27,1.85-.56-.19-1.05-.5-1.48-.91-1.28-2.06-.76-3.61,1.05-5.18,8.1-7.01,11.87-15.43,11.02-26.61-.41-5.36,.67-11.42,2.68-16.86,3.11-11.19,2.84-22.38-.18-33.52-.87-3.2-1.64-6.24-.31-9.52,1.56-3.84-.17-7.67-.46-11.48-.54-7.12-2.03-14.08-4.54-20.82-.79-2.12-2.64-3.29-3.63-5.14-.84-1.58-2.04-3.24-.67-5.08,1.46-1.97,3.16-.89,4.92-.34,3.61,1.14,6.58,2.64,5.82,7.36,3.23-1.49,6.1-.87,6.23,2.65,.21,5.9,2.07,11.05,4.99,15.99,.22,2.83,.98,5.57,1.38,8.37-1.73,3.42,.05,6.94-.29,10.39-.56,2.81-.96,5.61,.97,8.13,.19,.46,.12,.87-.24,1.22Z"/><path class="cls-88" d="M318.66,188.44c5.23-4.28,8.32-10.03,11.04-16.03,3-3.6,3.99-8.22,6.18-12.24,.85-1.56,1.25-3.7,3.86-2.48-.34,2.29-.67,4.59-1.01,6.88-.38,8.7-2.98,16.88-5.88,24.98-1.77,3.19-2.47,6.5-1.2,10.05,.7,1.96,.32,3.95,.14,5.93-.35,1.65,1.38,3.71-.97,4.98-2.26,.42-2.89,2.45-3.99,4.03-.86-.13-1.86-.44-2-1.25-.99-5.72-3.54-11.48-.9-17.27,1.23-2.7,1.14-4.08-1.99-4.41-1.96-.21-3.74-.5-3.28-3.17Z"/><path class="cls-93" d="M339.74,157.7c-3.24,3.67-4.13,8.54-6.43,12.68-.67,1.21-.76,4.32-3.61,2.04,1.31-11.17,3.2-22.23,6.64-32.97,.71-2.22,1.44-4.42,1.5-6.77,.08-.14,.15-.28,.23-.43,.74-1.53-.81-4.85,2.09-4.42,2.21,.33,1,3.11,.73,4.88-.68,5.98,1.76,12.14-1.01,18-1.32-.41-1.62-1.4-1.55-2.45-.55,4.27-3.02,8.17-3.56,12.31,1.19-1.85-.4-5.84,3.99-5.96,.33,1.03,.65,2.06,.98,3.09Z"/><path class="cls-90" d="M332.85,189.56c1.77-8.37,3.24-16.82,5.88-24.98,3.02-4.53,4.34-9.63,5.03-14.94,.27-2.09-.35-4.29,.63-6.31,.35,.09,.87,.14,.88,.23,1.02,10.83-.97,21.45-2.41,32.1-.38-1.74-.36-4.25-2.44-4.34-1.86-.08-1.79,2.46-2.21,3.93-.95,3.32-1.74,6.69-2.44,10.06-.39,1.88-1,3.48-2.91,4.25Z"/><path class="cls-95" d="M340.88,132.71c-.26-1.17,.36-2.56-.91-3.53-1.59,.65-1.14,2.52-2.13,3.49-1.97-4.4-3.32-8.83-2.06-13.79,.59-2.32,1.04-4.47,3.45-5.66,2.35,2.46,.87,5.94,2.52,8.48-.16,3.68,.71,7.44-.87,11.01Z"/><path class="cls-59" d="M338.76,154.61c-2.96,3.61-3.22,8.59-6.23,12.23,1.55-7.85,2.5-15.83,5.81-23.42,1.49,2.35,1.26,4.87,1.54,7.29-.37,1.3-.75,2.6-1.12,3.9Z"/><path class="cls-13" d="M341.82,110.64c0-.32,0-.63-.02-.95-.79-2.42-3.11-4.18-3.01-6.99,0-3.99,0-7.99,0-11.98,4.56-.1,6.96,3.08,6.01,7.99,0,1.35-.02,2.7-.03,4.06-3.25,1.77-1.11,5.57-2.95,7.87Z"/><path class="cls-96" d="M291.97,226.48l-.23-14.01c-2.02-1.82-1.28-4.48-2.04-6.68l-1.07-1.09c-.38-2.23,1.44-2.28,2.77-3.11,4.69-2.92,9.9-4.83,14.61-7.68,1.36-.82,2.77-1.06,4.25-.34,2.85,2.16,3.07,4.71,1.43,7.8-2,3.79-3.45,7.84-5.17,11.76-2.96,6.71-4.06,7.34-11.22,6.09-1.06,2.46,1.75,6.62-3.33,7.26Z"/><path class="cls-18" d="M289.7,205.79c2.47,1.68,2.23,4.19,2.04,6.68-2.68,1.88-1.77,4.72-1.81,7.23-.05,3.05-.21,5.93-3.15,7.75-.54,.67-1.43,.8-2.07,1.32-1.29,1.07-2.55,2.26-4.4,1.27-2-1.07-1.95-2.85-1.54-4.74,.11-.49-.03-.98-.2-1.47-.17-.45-.22-.89-.18-1.36,.62-1.82,.72-3.86,2.29-5.26,1.1-.49,2-1.35,3.15-1.75,3.66-2.2,5.35-5.59,5.86-9.69Z"/><path class="cls-28" d="M309.77,194.49c-7.47,2.53-14.17,6.64-21.13,10.22-4.47-.44-7.86-2.26-8.96-7.01,1.41-1,2.25,.07,3.17,.86,4.9,3.28,8.94-.25,12.86-2.09,4.41-2.07,8.24-5.27,13.05-6.77,2.09-.65,3.58-.88,5.02,.85,.36,.01,.72,.03,1.08,.04,.63,4.33-1.69,4.82-5.09,3.91Z"/><path class="cls-21" d="M283.84,215.48c.45,1.2,.27,2.22-.82,3-2.74,2.96-5.71,3.79-9.09,1-4.07,1.17-4.6,5.48-7.12,8.03-1.01-7.21,.09-9.25,6.88-10.56,3.33-.64,6.5-2.91,10.14-1.47Z"/><path class="cls-30" d="M309.77,194.49c1.7-1.3,3.39-2.61,5.09-3.91,1.27-.71,2.54-1.42,3.81-2.13,3.27,1.22,6.89-.15,10.4,1.81-1.14,2.42-.53,5.77-3.18,8.03-1.05,.9-.92,2.1-.56,3.22,1.4,4.25,2.2,8.56,1.5,13.04-.12,7.04-3.55,12.92-6.5,19-1.23,2.54-2.65,3.73-5.36,2.02-6.31-3.99-13.13-5.59-20.57-4.39-1.9,.31-1.58-1.8-2.49-2.6,.02-.7,.04-1.4,.06-2.1,1.85-4.44,.23-9.18,1.43-15.03,.76,4.19,2.46,6.13,5.78,5.94,3.38-.19,4.01-2.94,5.04-5.37,1.55-3.65,3.09-7.31,4.84-10.86,1.09-2.21,1.5-4.34,.7-6.67Z"/><path class="cls-30" d="M330.83,214.53c1.54,.75,2.15-1.23,3.9-1.25-.5,6.8,2.16,13.74-1.87,20.2-2.05-1.91-2.98-4.23-2.33-7.01,.92-3.97,.79-7.95,.3-11.94Z"/><path class="cls-30" d="M330.82,210.52c0-1.72-.01-3.45,.97-4.98,4.32,1.97,3.37,3.97,.04,5.99-.34-.34-.68-.68-1.02-1.01Z"/><path class="cls-30" d="M332.8,235.49c1.07,2.57,1.38,5.24,1,8-2.59-2.38-2.33-5.12-1-8Z"/><path class="cls-52" d="M207.92,232.51c2.34-5.66,4.68-11.32,7.02-16.98-.35,4.32-.69,8.63-1.04,12.95-1.89,3.41-1.63,7.42-3.09,10.95-4.76-.73-1.46-4.81-2.89-6.92Z"/><path class="cls-84" d="M349.77,214.52c-.31-1.03-.63-2.05-.94-3.08,2.62-1.68,1.74-5.48,4.52-7.65,.56,4.51-1.96,7.47-3.58,10.73Z"/><path class="cls-102" d="M178.63,255.37c-4.56-1.71-4.78-2.77-1.56-7.76-.06-3.13,2.1-4.04,4.6-4.61,4.84,1.01,2.16,4.39,1.7,6.57-.32,1.5-1.5,3.27-3.24,4.14-.5,.55-1,1.11-1.5,1.66Z"/><path class="cls-22" d="M181.93,244.14c-1.62,1.15-3.24,2.31-4.86,3.46-1.75-1.04-3.67,1.13-5.4-.28,.4-.61,.8-1.23,1.2-1.84,.99-2.78,2.58-4.66,5.91-3.97,2.08-.24,3.94-1.92,6.2-.91,.07,2.12-1.31,2.98-3.06,3.54Z"/><path class="cls-35" d="M178.79,241.51c-1.97,1.32-3.94,2.65-5.91,3.97-2.14-.53-3.23,3.91-5.82,1.22,2.24-3.18,5.19-5.44,8.81-6.85,1.69-.66,3.4-1.43,2.92,1.66Z"/><path class="cls-35" d="M181.93,244.14c1.02-1.18,2.04-2.36,3.06-3.54,1.85,6.03-.08,11.23-4.86,13.11,.81-3.15,4.36-5.78,1.81-9.57Z"/><path class="cls-8" d="M203.9,248.48c-.99-.68-1.99-1.36-2.98-2.05,.88-1.19,1.72-2.78,3.51-1.55,2.06,1.41,.24,2.48-.53,3.6Z"/><path class="cls-66" d="M279.81,222.53l.24,.99c.19,.83-.27,1.37-.83,1.87-1.46,2-2.4,4.21-2.77,6.67-.21,1.43-.35,3.11-2.6,2.46-3.4-4.89,.24-8.86,1.74-13.1,1.74-.89,3.18-.61,4.23,1.11Z"/><path class="cls-86" d="M281.77,232.29c-1.02,3.87-2.74,7.33-5.76,10.05-.41-.95-.83-1.9-1.24-2.85-.49-4.85,.47-6.21,5.59-7.95,.56,.09,1.03,.34,1.41,.75Z"/><path class="cls-99" d="M280.88,232.52c-2.52,1.9-6.67,2.37-6.12,6.97-1.05-1.52-.93-3.25-.92-4.96,1.8-3.24,.16-8.23,5.03-9.92-.4,2.91,.44,5.51,2,7.92Z"/><path class="cls-99" d="M279.81,222.53c-1.41-.37-2.82-.74-4.23-1.11-.55-.65-1.1-1.3-1.65-1.94,3.06-.02,6.23,.92,9.08-1-1.07,1.35-2.14,2.7-3.21,4.05Z"/><path class="cls-25" d="M391.72,202.57c1.35-6.66-1.66-12.54-3.3-18.68-.45-1.68-2.32-3.62,.26-5.23,2.01,3.34,4.57,6.36,5.98,10.06,0,.29,.02,.57,.06,.85-1.03,9.18,2.98,17.37,5.09,25.94,0,2.33,0,4.66-.02,7-1.74,.49-1.76-.85-2-1.92-.7-3.13-1.46-6.24-3.07-9.06-1.82-2.71-2.45-5.83-3.01-8.96Z"/><path class="cls-22" d="M408.79,234.51c-.08-1.08-.66-2.31,.87-2.91,1.29,2.04,.9,4.85,3.04,6.63,1.14-1.67-.03-4.04,1.87-5.35,1.6,.75,1.48,2.45,2.14,3.68-.41,2.28,1.69,4.9-.93,6.87-.57,2.78-4.7,3.53-4.03,7.03-2.07-5.12-2.22-10.59-2.95-15.96Z"/><path class="cls-10" d="M394.73,211.53c3.73,2.72,2.98,7.5,5.06,10.98,.99,2.66,1.98,5.32,2.98,7.98-.65,.97-1.29,1.94-1.94,2.9-2.64-7.12-4.81-14.37-6.1-21.86Z"/><path class="cls-87" d="M415.77,243.44c.97-2.2-.49-4.73,.93-6.87,.33,.65,.67,1.3,1,1.95,.34,3.32,.68,6.64,1.02,9.96-.29,0-.57,0-.85-.01-.7-1.67-1.4-3.35-2.1-5.02Z"/><path class="cls-92" d="M290.87,14.83c.91,2.15,2.97,3.01,4.8,2.61,4.8-1.06,9.39,.56,14.08,.5,2.53,.77,5.84-.01,6.97,3.52,0,.49-.15,.96-.39,1.39-3.08,1.48-5.53-1.36-7.83-1.19,3.47,1.23,7.56,2.27,11.88,1.82,4.83,3.8,9.99,6.94,14.04,12.01,3,3.75,5.06,8.22,8.62,11.52,1.38,1.35,2.46,2.8,1.78,4.9-.36,.75-.94,1.27-1.72,1.55-2.17,.39-2.62-1.39-3.6-2.7-4.03-5.39-7.5-11.24-12.56-15.82-2.7-2.47-5.64-2.54-8.77-.89-1.01,.45-2.3,.54-3.1,.33-5.93-1.56-11.55-1.16-16.89,1.94-2.6,.8-5.21-1.84-7.81,.03-3.14,2.24-1.1,3.3,1.07,3.62,2.99,.44,5.75,1.39,8.37,2.74,1.84,.95,3.95,1.93,3.86,4.62-.13,.54-.4,.98-.8,1.36-5.05,.78-9.64-1.5-14.49-2.14-2.74-1.27-5.77-.93-8.65-1.49-2.32-1.76-3.8-4.2-7.01-5.38-3.47-1.28-1.77-4.54,.15-6.84,.32-.02,.64-.03,.96-.05,2.36-1.81,5.1-2.57,7.98-2.99,.94,0,1.87,0,2.81,0,7.22-2.7,14.52-4.79,22.34-2.99-4.76-1.15-9.43-.86-14.15,.46-1.9,.53-3.92,1.92-6.05,.5-2.4-3.31-5.15-6.47-4.94-10.96-.49-1.33,.78-2.14,1.35-1.83,2.67,1.44,5.13-.09,7.68-.15Z"/><path class="cls-71" d="M272.9,32.84c-.3,2.96,.14,5.28,3.56,6.42,1.77,.59,2.92,2.51,3.42,4.5-2.42,1.37-4.93,.11-7.41,.31-1.9-1.17-3.5-1.75-5.73-.05-3.36,2.56-6.12,1.88-9.14-1.31-1.59-1.68-3.71-2.7-5.57-4.04-7.73-5.56-8.28-9.91-2.08-16.81,.31-.02,.63-.03,.94-.05,5.99-1.44,9.47,1.58,11.13,6.82,2.73-.69-.24-4.01,2.45-3.76,2.45,.22,2.78,2.67,2.93,4.64,.42,5.65,.35,5.66,5.5,3.31Z"/><path class="cls-4" d="M286.79,27.77c2.38-.81,4.9-.73,6.48-3.73,.87-1.65,4.23-2.87,5.84,.62,.65,1.4,1.66,.43,2.51,.48,4.05,.24,8.13,.4,11.8,3.01-9.86-2.82-19.22,.72-28.78,1.66,.71-.68,1.43-1.35,2.14-2.03Z"/><path class="cls-69" d="M290.87,14.83c-2.53,2.83-5.94,1.69-9.02,1.98-.81,.06-1.62,.18-2.43,.18-1.04,0-2.41,.83-2.95-.72-.44-1.25,.56-2.14,1.36-2.91,1.28-1.24,2.67-2.36,4.01-3.53-.19,3.13,3.12,5.23,6.77,4.09,2.84-.88,5.58-2.07,8.37-3.1,1.43-.53,2.9-2,4.5,.27-3.3,2.11-7.01,2.78-10.61,3.74Z"/><path class="cls-71" d="M281.83,29.8c-2.74,.78-4.42,4.39-7.98,2.99,1.52-4.04,4.9-3.12,7.98-2.99Z"/><path class="cls-97" d="M315.82,21.68c-1.71-1.76-4.75-1.36-6.06-3.75,.37-.38,.75-.75,1.12-1.13,2.89-2.9,6.04-1.54,9.02-.35,2.12,.85,4.22,1.68,6.48,2.01,7.3,6.76,13.67,14.32,19.14,22.62,1.62,2.45,2.87,5.29-1.6,6.46-1.53-.29-2.65-1.45-3.34-2.54-5.89-9.39-13.62-16.73-23.48-21.83-.55-.29-.87-.99-1.29-1.49Z"/><path class="cls-77" d="M325.77,20.86c-4.68-2.41-9.77-3.28-14.89-4.05,.17-2.39,1.11-4.6,1.32-7.06,.31-3.54,3.05-1.02,4.77-.99,.64,.31,1.29,.62,1.93,.94,1.23,1.65,3.04,2.68,4.48,4.07,1.95,1.87,5.11,3.56,2.38,7.08Z"/><path class="cls-19" d="M223.92,46.81c2.98-1.97,3.92-6.18,7.84-7.13,.45-.21,.96-.34,1.33-.64,3-2.4,6.25-2.21,8.81,.2,2.68,2.53,.29,5.11-1.01,7.51-.52,.53-1.03,1.07-1.71,1.41-3.06,.37-4.82,2.46-6.35,4.85-5.93,3.15-7.94,6.75-7.16,12.92-2.45,4.93-5.31,9.69-5.26,15.51,0,1.13-.57,2.72-2.49,2.29-1.64-9.44,.33-18.51,3.73-27.15,1.29-3.27,4.09-5.87,2.29-9.77Z"/><path class="cls-77" d="M217.9,83.73c1.29-2.09,.93-4.49,1.22-6.75,.58-4.49,1.82-8.69,4.74-12.26-.33-3.68,2.49-5.89,4.34-8.35,1.76-2.33,3.46-1.01,4.8,3.75-1.68,6.77-2.7,13.67-3.7,20.57-.28,1.98-.42,4.1-3.09,4.43-1.21-.26-1.62-1.22-1.98-2.23-.41-.72-.41-1.52-.37-2.42-.92,2.55,.13,5.27-1.12,7.68-1.32,1.96-1.16,6.08-4.06,5.45-2.7-.59-.82-4.27-1.27-6.53-.16-.79-.11-1.66,.45-2.37,0-.33,0-.66,.02-.99Z"/><path class="cls-19" d="M217.88,84.72c.27,2.4-.4,4.87,.67,7.64,2.08-1.49,.8-4.8,3.34-5.61,2.19,2.29,1.77,4.61,.06,6.94-2.48,1.93-1.93,4.71-2.07,7.31-.25,4.63,.68,9.35-1.21,13.88-.31-10.07-3.39-20.03-.79-30.15Z"/><path class="cls-72" d="M221.95,93.68c-.02-2.31-.04-4.62-.06-6.94,.08-2.95-.22-5.94,.77-8.81,.41-1.18,.57-2.94,2.37-2.52,1.5,.35,.85,1.91,.89,2.98,.04,1.15-.06,2.3-.09,3.45-1.72,3.17,.22,6.66-.89,9.88-.65,.74-1.3,1.48-1.95,2.23-.34-.1-.69-.19-1.03-.29Z"/><path class="cls-14" d="M325.77,20.86c-1.78-4.03-6.43-6.3-6.86-11.15,5.66,1.99,10.73,5.6,16.9,6.21-.02,.31-.02,.62-.01,.94-.31,.27-.61,.54-.92,.81-.2,2.21,3.64,1.62,2.91,4.19,.52,3.76,4.48,4.82,6.07,7.74,3.19,5.23,8.01,9.09,11.73,13.86-.16,3.91,2.85,5.76,5.04,8.3,2.21,2.56,4.13,5.49,5.02,8.9,.05,2.07,.86,3.96,1.93,5.59,3.09,4.75,2.94,10.29,4.13,15.49,1.7,3.18,3.59,6.27,4.15,9.93,0,2.01,0,4.02,0,6.09-2.15-.25-2.06-2.17-3.07-3.08-3.29-2.75-5.76-6.02-6.52-10.36-.8-5.62-2.29-10.99-5.47-15.8-.21-.31-.08-.64-.09-.61-.06,.15-.11,.3-.17,.51-.89,1.04-1.24,2.52-2.66,3.05-3.78-.87-5-4.41-7.19-6.92-.52-1.68-.92-3.2-2.6-4.48-2.56-1.95-4.7-4.55-4.29-8.25-.66-1.41-1.33-2.83-1.99-4.24,.17-1.55,1.2-.87,2.01-.78,1.59-1,1.13-2.19,.3-3.39-2.28-3.27-4.14-7-6.97-9.69-4.19-3.98-7.34-8.78-11.36-12.85Z"/><path class="cls-2" d="M364.65,60.98c-1.03-3.91-2.87-6.91-6.66-9.14-2.97-1.74-4.94-5.08-6.82-8.56,1.96-.23,2.19,1.8,3.2,1.95,1.6,.24,.39-1,.51-1.57,.17-.46,.5-.76,.96-.92,4.32,4.36,6.44,10.17,9.89,15.11,1.06,2.98,2.11,5.96,3.17,8.94,.02,.74-.49,1.55-.99,.87-1.48-2-3.69-3.73-3.26-6.68Z"/><path class="cls-4" d="M337.79,21.85c-.91-1.44-3.43-1.76-2.91-4.19,8.02,3.67,14.53,9.23,20.02,16.07,.29,.28,.37,.54,.24,.78-.12,.23-.24,.34-.35,.34-6.05-3.83-10.36-9.93-16.99-13Z"/><path class="cls-63" d="M355.84,42.74c-.32,.31-.64,.61-.97,.92-3.31-3.58-6.63-7.15-9.93-10.74-.86-.94-2.03-1.79-1.09-3.33,4.79,3.66,8.33,8.46,11.98,13.15Z"/><path class="cls-79" d="M354.78,34.85c.04-.37,.07-.75,.11-1.12,2.34,1.81,3.76,4.28,5.97,7.72-4.1-1.51-5.82-3.42-6.08-6.6Z"/><path class="cls-80" d="M370.82,117.65c-.76-4.47-3.95-7.97-4.95-12.34-.43-1.85-2.51-.75-3.53-2.07-1.12-1.45-2.53-2.56-2.45-4.58,.11-3.64-2.61-6.2-3.62-9.42-.46-1.47-1.92-2.91,.08-4.31,1.47-.71,2.74,.46,4.13,.45,.59-.04,1.18-.1,1.76-.15,1.29-.25,2.42-1.1,3.8-1.02,2.9,3.49,4.89,7.51,6.66,11.65,.71,6.27,1.43,12.54,2.14,18.81-.87,1.64-.66,4.74-4.04,2.99Z"/><path class="cls-3" d="M370.82,117.65c2.98-1.53-.58-3.9,.63-5.7,1.9,.07,2.19,1.97,3.41,2.71,1.31,3,2.63,6,3.94,9,1.24,4.63,2.51,9.26-2.08,12.96-2.81,1.52-1.42,3.92-1.11,5.96,.26,1.73,.59,3.03-1.88,2.08-.95-2.39-1.9-4.78-2.85-7.17,1.17-1.27,2.33-2.99,1.46-4.42-3.05-4.98,.26-10.43-1.51-15.42Z"/><path class="cls-25" d="M376.72,136.62c-.18-2.87-.36-5.75-.57-9.15,1.1,.96,1.76,1.54,2.65,2.32,0-2.28,0-4.21,0-6.13,.65,1,1.31,2,1.96,3,.19,2.69,2.7,5.09,1.02,8.02-1.7,2.19,.95,4.27,.12,6.51-1.65,.31-1.7-3.9-4.09-1.53-.37-1.01-.73-2.03-1.1-3.04Z"/><path class="cls-42" d="M372.72,95.85c-3.26-3.13-3.97-7.81-6.82-11.2-.33,.01-.69,.11-.97,0-3.58-1.41-7.88-9.87-7.1-13.94,.24-1.18,.78-2.17,1.84-2.82,4.56,4.29,6.4,9.99,8.19,15.71,.01,4.42,4.93,6.65,4.94,11.07-.02,.39-.05,.78-.07,1.18Z"/><path class="cls-33" d="M390.74,171.58c-2.13-1.77-3.22-3.88-3.58-6.78-.45-3.58-1.49-7.17-2.85-10.53-1.37-3.37-.89-6.06,1.45-8.63,1.66,8.65,3.32,17.29,4.99,25.94Z"/><path class="cls-57" d="M364.65,60.98c1.26,2.05,1.72,4.68,4.25,5.8,3.42,4.09,3.56,9.44,5.16,14.2,1.01,3.01-1.86-.61-2.35,.75-2.04-2.93-5.23-5.31-3.23-9.79,.71-1.58-1.2-3.23-2.1-4.76-1.11-1.91-3.02-3.62-1.73-6.2Z"/><path class="cls-16" d="M238.88,45.8c-.29-.57-.72-1.12-.84-1.72-.36-1.83,4.06-.81,2.19-3.17-1.34-1.68-3.79-1.75-6.01-1.38-.81,.14-1.64,.11-2.46,.16,1.32-1.35,2.06-3.31,4.06-3.96,2.91-1.83,5.54-3.8,4.11-7.89,0,0-.01,0-.01,0,3.5-1.72,6.23-4.73,10.02-5.96-.72,.98,5.61,2.48-.35,3.32-2.34,.33-2.38,5.75,.02,8.17,3.35,3.38,6.87,6.61,10.48,9.72,1.97,1.7,4.08,.72,5.85-.63,2.46-1.88,4.73-2.2,6.94,.31-2.09,4.4-10.49,7.39-14.27,4.34-5.49-4.42-10.88-3.1-16.53-1.24-1.14,.38-2.15,.66-3.2-.08Z"/><path class="cls-29" d="M239.93,27.84c1.23,1.95,3.62,2,6.17,3.42-4.19,.99-6.2,4.84-10.29,4.47,1.37-2.63,2.74-5.26,4.11-7.89Z"/><path class="cls-50" d="M226.04,84.87c1.65-8.39,2.06-17.01,4.74-25.21,1.02-.85,1-2.5,2.39-3.08,.54-.16,1.08-.27,1.63-.32,10.88-3.98,22.51-3.5,33.69-5.68,2.7-.53,5.25,.2,7.35,2.19,1.32,1.25,2.82,2.34,4.33,3.33,8.66,5.65,11.73,13.54,9.62,23.56-.61,2.93-.81,5.94-.92,8.88-.21,5.49-2.92,8.87-7.69,10.99-.74,.52-1.54,.86-2.48,.8-1.72-.21-3.68,.29-4.83-1.61-1.65,.16-3.43-.04-4.91,.54-8.27,3.27-15.3,.21-21.93-4.27-3.04-2.05-5.94-2.86-9.7-2.67-3.8,.19-7.67-1.12-11.51-1.77-1.21-1.94-1.49-3.85,.22-5.68Z"/><path class="cls-20" d="M273.88,98.72c1.65-.01,3.3-.03,4.96-.04-.19,4.58-2.51,8.46-4.13,12.57-.48,1.22-1.72,2.03-2.05,3.68,2.26,1.09,4.36-.36,6.52-.48,1.74,.04,2.59,1.4,3.65,2.45,1.53,1.7,3.61,2.15,5.72,2.68,1.75,.44,3.54,1.03,4.44,2.88,.28,1.02,.14,1.94-.64,2.7-1.46,3.9-4.14,5.23-8.2,4.13-3.75-1.02-5.75,1.02-6.43,4.42-.78,3.92-1.02,7.81,.2,11.82,2.01,6.64,2.44,13.36-.87,19.84-.76,1.49-.99,2.9,.62,3.93,1.66,1.06,3.94,1.57,5.09,.07,2.76-3.6,7.01-4.13,10.52-6.14,4.56-2.61,7.12-7.38,9.27-12.07,1.31-2.85,2.28-5.87,3.6-8.75,1.72-3.76,.74-6.29-2.99-8.22-2.81-1.46-5.98-2.06-8.86-3.36-2.71-1.23-4.03-3-1.73-5.8,7.98-2.22,15.95-2.48,23.93,.01,3.56,1.11,4.46,4.42,3.97,8.94-1.04,9.43-6.32,17.03-10.02,25.31-1.91,4.28-3.32,8.74-6.33,12.63-2.64,3.41-5.55,6.06-9.31,7.97-3.26,1.65-6.57,3.19-9.81,4.9-4.52,2.39-7.59,.87-8.84-3.87-.11-.46-.21-.94-.34-1.4-.55-2.77-3.17-2.4-4.97-3.07-1.62-.61-3.42-.77-5.08-1.38-1.47-.73-3.44-1.03-2.91-3.44,2.69-4.06,1.03-7.33-4.46-7.5-3.54-.11-5.58-1.62-7.23-4.25-2.7-4.29-2.19-5.97,2.19-8.65,4.57-2.79,5.82-7.55,6.4-12.32,1.28-10.38,5.57-20.07,6.67-30.51,.46-4.4,5.68-5.87,7.47-9.66Z"/><path class="cls-50" d="M232.91,151.63c-.86-4.85-2.49-9.45-4.8-13.78-2.78-5.23,.78-9.92,1.14-14.87,.23-3.11,.69-6.2,.66-9.33,2.31-.82,2.23,1.36,2.98,2.42,3.43,4.81,10.53,6.51,15.45,3.66,1.25-.72,1.78-1.9,2.16-3.21,.37-1.3,.75-2.59,2.39-2.82,7.02-2.77,7.95-2.08,8,5.48,.04,5.94-2.16,11.02-5.71,15.58-1.47,1.88-3.29,3.87-2.65,6.19,1.67,6.03-3.05,8.23-6.3,11.23-2,1.85-4.56,.8-5.74-.88-2.97-4.19-5.19-2.64-7.59,.33Z"/><path class="cls-26" d="M252.89,113.69c-.12,1.97-.08,3.97-.39,5.91-.27,1.67-1.12,3.44-2.96,3.56-4.24,.29-8.52,.39-12.76,.2-2.48-.11-3.26-2.51-4.23-4.42-.9-1.76-1.76-3.54-2.64-5.31-3.32-2.2-3.96-5.29-2.99-8.93-.11-2.32,2.76-4.65-.03-6.95-.34-.34-.69-.68-1.03-1.02-.4-5.8,3.06-4.01,6.08-3.08,1.9,3.62,4.7,3.73,7.96,2.04,6.1,2.62,10.46,6.55,10.61,13.78,.03,1.76,1.58,2.8,2.39,4.2Z"/><path class="cls-78" d="M262.84,171.62l3.96,2.02c-.12,.3-.34,.52-.53,.77-.7,.95-4.53-.44-2.13,2.84-.53,.98-1.34,1.59-2.39,1.94-3.94,.91-7.84,1.46-11.27-1.49-2.04-1.78-4.22-3.04-7.13-2.65-1.43,.19-3.06,.28-3.66-1.64,.03-.28,.06-.57,.09-.86,7.54-3.89,15.4,.05,23.06-.94Z"/><path class="cls-12" d="M239.89,95.71c.51,1.64,2.57,3.37,1.02,4.93-1.7,1.71-3.25-.58-4.73-1.32-1.9-.96-3.62-2.27-5.41-3.44-.62-.4-1.84-.64-1.11-1.63,.36-.49,1.49-.4,2.28-.58,2.65,.68,5.3,1.36,7.96,2.04Z"/><path class="cls-91" d="M226.04,84.87c-.07,1.89-.14,3.79-.22,5.68-.3,.4-.59,.79-.89,1.19-1.4-3.45-2.12-6.83,.89-9.88,.07,1,.14,2.01,.21,3.01Z"/><path class="cls-57" d="M251.84,175.53c2.75,2.39,5.75,2.76,8.99,1.07,3.27,5.83,8.21,3.68,12.85,2.58,1.86-.44,3.65-1.78,5.21,.47-.2,3.78,1.25,4.46,4.9,3.14,13.42-4.88,21.54-14.57,26.74-27.54,2.81-7.01,7.49-13.14,7.87-21.22,.23-4.84-1.35-7.17-5.83-8.15-4.26-.93-8.49-1.61-12.81-.31-2.6,.78-5.27,.53-7.92,.1h0c0-.99,0-1.98,.01-2.97,3.22-1.46,6.07-3.58,9.21-5.18,5.02,3.57,10.46,4.02,16.48,3.05,4.89-.78,8.3,2.79,7.76,7.99-.85,8.32-3.53,16.23-7.1,23.8-2.2,4.67-3.72,9.56-5.39,14.43-2.47,7.24-8.01,12.55-14.14,16.92-3.34,2.38-6.95,4.63-11.08,5.6-3.27,.77-4.86,3.96-7.77,5.23-2.34-.34-4.68-.68-7.03-1.02-.72-2.92-2.83-3.89-5.57-3.92-3.15-.03-6.29-.04-9.44-.04-8.08-.02-10.55-1.98-11.58-9.98-.32-2.48-.98-2.93-3.03-1.89-1.4,.71-2.55,.52-3.37-.92,3.69-3.49,7.83-2.52,12.01-1.24Z"/><path class="cls-3" d="M251.84,175.53c-4.07-.24-8.07,.16-12.01,1.24-3.45-.98-2.08-2.16-.13-3.36,3.44-.02,6.89,.03,10.33-.09,1.77-.06,2.57,.36,1.81,2.22Z"/><path class="cls-15" d="M279.85,194.54c.26-4.06,2.02-6.32,6.27-7.69,12.39-3.98,21.49-11.35,25.36-24.7,2.71-9.34,7.85-17.88,10.75-27.25,.54-1.73,1.45-3.34,1.51-5.21,.16-4.62-2.52-7.14-7.09-6.69-2.63,.26-5.29,.37-7.91,.67-4.03,.47-6.75-.96-7.83-5.02-1.8-.63-1.5-2.8-2.79-3.81-1.06-1.95-2.73-2.02-4.74-1.96-2.09,.05-4.35-.34-4.44-3.29,1.66-3.92,4.86-2.33,7.53-1.89,2.85,.47,5.4,2.3,8.46,1.96,2.34,.88,4.09-.12,5.72-1.7,1.15-1.11,2.1-2.58,3.98-2.63,7.17,2.69,14.98,13.92,13.69,21.36-.25,1.46-.07,3-1.52,3.97-1,14.6-7.78,27.55-11.82,41.28-2.67,9.09-10.15,13.57-18.28,17.08-2.29,.99-4.67,1.77-6.44,3.65-3.01,3.19-6.5,3.71-10.41,1.88Z"/><path class="cls-78" d="M326.81,130.66c1.86-11.33-5.32-17.78-12.97-23.98-3.37,.55-6.68-.19-9.73-1.28-5.09-1.82-10.05-1.65-15.13-.43-2.84,.05-5.17,2.14-8.1,1.9-1.92-.16-3.78-.39-4.31-2.54-.52-2.07,1.07-2.81,2.66-3.53,1.86-.84,3.04-2.63,4.77-3.69,1.69-.88,3.47-1.59,5.01-2.72,4.82-1.08,9.52,.52,13.98,1.58,2.62,.62,5.59-.13,7.94,1.58,5.74,2.16,8.12,.57,8.43-5.38,.19-3.61-1.14-6.86-1.99-10.22-1.91-7.57-3.98-15.08-7.43-22.15-1.27-2.6-3.31-4.49-5.19-6.55-1.48-1.63-3.17-3.3-.44-5.32,5.74,1.7,9.32,6.15,12.86,10.45,6.98,8.46,7.31,19.25,9.61,29.31,1.12,4.9,1.09,9.87,.2,14.92-.73,4.15,1.46,8.04,2.2,12.08,.07,6.76,2.17,13.46,.62,20.27-.05,.84-.32,1.63-.59,2.42-.38,.53-.84,.62-1.39,.26-.09-2.37,.33-4.8-1-6.99Z"/><path class="cls-35" d="M327.81,137.65c.33,0,.66,0,.99,0,.78,1.66,.77,3.33,0,5-2.27,5.18-2.01,10.84-1.44,16.05,1.09,9.92-2.06,17.76-8.77,24.63-2.05,2.1-4.64,3.86-4.82,7.22-6.68,.96-12.3,4.46-18.18,7.42-4.06,2.04-8.31,4.57-12.75,.6,5.2,1.23,9.9-1.14,13.37-3.95,4.75-3.86,10.47-5.57,15.34-8.91,6.6-4.52,11.42-10.33,11.18-18.74-.29-10.17,3.39-19.54,5.08-29.3Z"/><path class="cls-50" d="M226.89,97.76c5.01,2.29,2.19,4.62,.03,6.95-1.6-2.31-.05-4.63-.03-6.95Z"/><path class="cls-38" d="M356.81,85.74c-.28,3.88,2.68,6.62,3.51,10.09,.21,.89,2.24,2.31-.44,2.82-2.38-4.63-4.75-9.26-7.13-13.88-5.3-1.36-6.87-5.07-6.38-10.08,1.2-1.89-.06-5,2.96-6.01,2.24-.1,3.35,1.22,3.97,3.15,.93,3.1,2.19,6.08,3.46,9.06,.66,1.55,1.88,3.22,.05,4.85Z"/><path class="cls-10" d="M347.94,74.75c.12,2.48-.44,5.13,3.16,6.05,.83,.21,1.12,2.58,1.65,3.96-3.26,.72-3.87,3.23-4.07,6.01-.66-2.34-1.31-4.68-1.97-7.03-4.4-3.79-4.26-9.43-5.72-14.39-.43-1.47,.73-2.8,2.35-3.35,5.27,.94,3.55,5.56,4.59,8.73Z"/><path class="cls-53" d="M343.86,66.6c-1.62,2.55,.19,4.74,.81,7.02,.91,3.34,1.85,6.66,2.04,10.13-2.07,4.1-.54,8.29,.3,12.2,1.06,4.93-.75,10.43,2.87,14.84-.22,5.3-1.54,10.53-1.08,15.88-3.72-5.79-1.69-12.5-2.94-18.7-.61-3.02,.5-6.3-1.08-9.25-1.5-3.04-3.7-5.55-6.01-7.99-.33-2.66-.66-5.33-.99-7.99-1.15-5.41-2.93-10.73-2.41-16.38,.26-2.77-.67-5.17-1.95-7.54-2.18-4.05-4.38-8.05-5.43-12.65-1.24-5.46-1.05-5.9,4.7-5.25,4.82,6.61,10.07,12.97,11.87,21.25,.34,1.57,1.13,3.21-.72,4.42Z"/><path class="cls-15" d="M280.88,232.52c-5.75-1.36-3.05-4.85-2-7.92,.39-.36,.78-.72,1.17-1.08,1.42,.19,2.85,.39,4.2,.57,.09,1.26-.67,1.22-1.26,1.38-1.08,.29-2.73,.27-2.33,1.88,.44,1.79,1.96,1.26,3.26,.83,.94-.3,1.91-.49,2.87-.72,.01,.34,.02,.68,.04,1.02-1.68,1.27-3.37,2.54-5.05,3.81-.29,.1-.59,.18-.89,.23Z"/><path class="cls-7" d="M331.78,41.8c-.89,.29-1.78,.58-1.72,.57,.56,8.27,7.7,14.36,7.93,22.07,.18,5.96,.38,12.21-.19,18.3-3.47-4.02-3.01-9.33-4.57-13.97-.51-1.52-.38-3.26-2.34-3.95-1.61,2.3,1.59,4.08,.05,6.64-1.34-2.93-2.51-5.58-3.77-8.19-.57-1.18-1.13-2.5-2.06-3.34-1.43-1.29-3.54-3.34-5.12-1.96-1.9,1.66,.47,3.48,1.58,5,3.27,4.46,6.18,9.1,6.38,14.83,.28,8.13,3.5,16.21,.43,24.44-.35,.94,.15,2.27,.46,3.36,3.47,12.36,4.35,24.71-.02,37.06,0-1.66,0-3.33,0-4.99,0-.66,0-1.33,0-1.99,1.48-7.19,.14-14.12-2-20.97-1.44-3.97-1.68-7.94-1.18-12.21,.74-6.29-.03-12.54-2.06-18.68-1.45-4.38-2.59-8.95-2.78-13.64-.1-2.37-.36-4.93-1.81-6.66-4.53-5.4-8.93-11.02-15.17-14.67-.83,.2-1.16-.13-1-.96l.03-1.07c1.05-2.19,2.9-2.3,4.59-1.22,3.6,2.3,7.52,3.37,11.29,3.46-1.14-.87-3.01-1.38-4.8-2.05-1.74-.65-2.99-1.79-2.42-3.73,.59-2.04,2.44-1.24,3.83-1.16,.99,.06,1.98,.2,2.33,.22-2.59-.26-5.37-.37-8.59,1.78-2.95,1.97-6.88-1.11-10.34-1.98-2.64-.67-4.8-2.77-7.65-3.43-1.76-.41-2.68-1.97-1.22-3.86,2.32-2.73,4.65-.14,6.98-.01,4.87-1.3,9.71-1.75,14.79-.88,3.11,.53,6.54,1.1,9.55-.9,2.07-.85,3.67,.15,5.21,1.33,2.08,2.27,5.54,3.55,5.4,7.44Z"/><path class="cls-80" d="M338.79,102.7c1.92,1.94,3.44,4.04,3.01,6.99-2.24-1.8-4.56-3.56-3.01-6.99Z"/><path class="cls-52" d="M310.82,99.77c-6.97-1.07-13.64-4.99-21.01-2.18-1.35-1.97-.28-3.08,1.44-3.85,1.06-.47,2.25-.55,3.39-.81,6.22-1.4,6.25-1.4,4.47-7.41-.55-1.84-.3-3.57,.12-5.38,2.76-11.89-1.61-23.07-12.09-28.9-5.09-2.83-11.03-3.95-16.84-1.73-4.75,1.81-9.13,2-13.94-.11-5.18-2.27-10.32-1.99-14.72,2.4-2.31,2.3-5,4.2-7.78,5.94-.32,.02-.63,.03-.95,.05-3.41-2.54,.21-4.26,.74-6.35,1.43-1.53,2.91-3.01,4.24-4.63,.32-.34,.65-.67,.97-1.01,6.66-3.22,13.03-5.66,20.22-.46,4.79,3.46,9.35-.64,13.78-2.56,2.47-.61,4.77-.01,7.01,.99,3.01,.17,6.1-.37,8.96,1.06,5.13,2.5,10.93,3.17,15.42,7.56,5.5,5.38,7.18,12.07,8.87,18.96,.43,1.77,.36,3.76,1.38,5.26,3.98,5.87,2.49,12.11,1.43,18.31-.47,2.75-1.6,5.16-5.12,4.86Z"/><path class="cls-68" d="M310.82,99.77c3.94-6.53,5.58-13.41,1.92-20.52-2.34-4.54-2.78-9.52-3.77-14.29-1.7-8.17-6.71-12.98-13.63-16.55-2.2-1.14-4.34-2.39-6.5-3.59,4.86,.09,9.2,2.53,13.96,3.04,.33,.32,.67,.64,1,.96,.91,1.37,1.62,2.95,2.76,4.09,11.2,11.14,13.43,25.76,15.08,40.33,.91,8.03-3.62,10.35-10.83,6.53Z"/><path class="cls-11" d="M289.84,34.82c7.18,3.14,13.63,8.3,22.46,6.28,6.22-1.42,10.24,.36,12.21,4.04-2.28,.88-3.56-1.33-5.4-1.72-1.97-.42-3.86-.67-6.41,.42,4.32,1.51,8.13,2.87,10.98,6.03,1.17,1.3,2.44,1.88,1.02,3.95-1.53,2.24-2.37,.42-3.59-.06-6.07-2.37-12.18-4.65-18.27-6.97-5.51-4.02-12.52-3.79-18.5-6.52-.96-.44-2.52,.11-2.67-1.5-.15-1.58,1.07-2.47,2.34-2.84,1.9-.55,3.89-.76,5.84-1.12Z"/><path class="cls-54" d="M331.78,41.8c-2-1.99-3.99-3.99-5.99-5.98-.36-1.71,.39-2.31,2.03-2.03,6.23,5.37,10.26,12.46,14.89,19.08,2.53,1.05,3.45,3.27,4.14,5.66,.45,2.38,.61,4.82,2.11,6.91,.98,1.37,1.04,2.9-.09,4.31,.35,2.22,.7,4.45,1.05,6.71-1.42,.28-1.26-1.23-1.98-1.71-1.36-2.72-2.72-5.43-4.07-8.15-2.03-9.24-6.05-17.51-12.08-24.8Z"/><path class="cls-106" d="M321.77,33.85c-3.07,3.52-7.14,2.08-10.68,1.68-4.76-.53-9.49-.78-14.27-.73,5.04-3.06,10.46-3.5,16.15-2.54,1.93,.33,3.92,.28,5.88,.41,1.42-.72,2.36-.24,2.92,1.17Z"/><path class="cls-37" d="M343.81,46.78c-.67,.26-1.34,.52-2.01,.78-3.64-3.09-5.4-7.62-8.83-11.01-4.23-4.17-8.63-8.04-13.32-11.63-1.58-.17-3.14-.35-3.76-2.17-.02-.36-.05-.72-.07-1.08,10.45,4.29,17.63,12.49,24.76,20.73,1.18,1.36,2.16,2.9,3.23,4.36Z"/><path class="cls-52" d="M321.77,33.85c-.97-.39-1.95-.78-2.92-1.17-1.48-.56-2.96-1.11-4.45-1.66,4.41,1.3,9.72-1.59,13.41,2.78-.68,.68-1.35,1.35-2.03,2.03-1.34-.66-2.68-1.32-4.02-1.97Z"/><path class="cls-3" d="M345.93,58.64c-.67-2.15-1.78-4.05-3.22-5.77,.36-.36,.72-.71,1.08-1.07,2.18,4.3,7.22,6.66,8.07,11.86-.11,.79-.53,1.34-1.29,1.6-3.81-.62-3.38-4.22-4.64-6.63Z"/><path class="cls-89" d="M315.89,22.76c1.25,.72,2.51,1.44,3.76,2.17-5.71,.22-10.64-2.99-16.15-3.75,4.37-1.39,8.28,.9,12.39,1.58Z"/><path class="cls-22" d="M234.91,51.79c-.23,2.14-2.65,3.55-1.99,5.99-.71,.63-1.42,1.25-2.14,1.88-.06-1.72,.06-4.02-2.29-1.24-1.68,1.98-3.09,4.2-4.62,6.31-2.25-1.27-.94-2.72-.19-4.11,1.94-3.62,4.43-6.84,7.22-9.83,1.21,.68,1.64-.72,2.5-.94,1.94-.5,2.46,.17,1.5,1.95Z"/><path class="cls-16" d="M234.91,51.79c-.9-2.07-2.91,.27-4.01-1.01,2.03-1.86,4.38-3.16,7-3.98-.08,2.21-1.14,3.84-3,4.99Z"/><path class="cls-107" d="M350.71,64.87c.38-.4,.77-.8,1.15-1.21,1.99,2.35,3.98,4.7,5.96,7.04,2.69,4.65,5.38,9.3,8.07,13.94-1.35,1.92,.32,3.78,.19,6.01-2.23-.69-2.53-3.1-4.16-4.03-2.91-1.06-4.1-3.64-5.53-6.07-2.35-3.99-3.01-8.78-6.03-12.46-.84-1.03-.34-2.21,.35-3.23Z"/><path class="cls-2" d="M367.85,83.6c-2.73-5.24-5.46-10.48-8.19-15.71-.29-1.55-1.39-2.95-.79-5.58,3.77,7.33,9.2,13.05,8.98,21.29Z"/><path class="cls-83" d="M348.42,50.74c1.99,3.06,3.99,6.12,5.98,9.18l-1.11,.73c-1.99-3.04-3.99-6.07-5.98-9.11,.37-.27,.74-.54,1.11-.81Z"/><path class="cls-41" d="M350.71,64.87c3.07,7.6,7.03,14.74,11.22,21.76-.37,.35-.74,.7-1.12,1.05-3.69-1.5-3.9-5.41-5.67-8.23-1.3-2.08-1.74-4.61-3.3-6.57-.39-1.62-1.33-2.71-2.98-3.14-1.19-3.65-4.16-6.83-2.94-11.11,1.59,2.08,3.19,4.15,4.78,6.23Z"/><path class="cls-4" d="M351.84,72.89c4.24,4.17,4.97,10.48,8.97,14.8,.02,.47,.19,1.01,.02,1.41-.44,1.06-.92,.34-1.29-.1-.93-1.07-1.82-2.17-2.73-3.25-1.17-4.47-4.23-8.21-4.97-12.85Z"/><path class="cls-24" d="M233.87,57.74c6.26-10.97,13.47-15.62,25.08-10.15,3.3,1.55,6.35,1.25,9.6-.12,8.31-3.5,17.78-.37,24.49,5.41,5.16,4.45,8.06,9.23,9.21,15.63,.57,3.16,1.17,6.41,.12,9.38-1.52,4.35-1.08,8.06,1.58,11.74,.95,1.31,1.91,3.01,1.08,4.65-1.03,2.03-2.93,.67-4.48,.7-3.77,.07-7.67-.34-10.74,2.61-1.99,.04-3.97,.09-5.96,.13-1.32,1.04-2.65,1.46-3.98,.02,4.41-1.31,6.18-4.25,6.34-8.84,.18-5.12,1.12-10.21,1.61-15.33,.54-5.68-2.21-9.89-6.37-13.34-1.66-1.38-3.68-2.38-5.15-3.92-3.59-3.79-7.63-3.49-12.37-2.67-9.96,1.74-20.04,2.78-30.07,4.1Z"/><path class="cls-12" d="M279.87,97.74c1.33,0,2.66-.01,3.98-.02-.76,3.06-2.98,4.55-6.65,5.16,4.58,3.7,8.08,0,11.69-.12,1.16,1.32,.69,2.74,.29,4.17-2.99,3.47-7.11,5.63-10.28,8.9-2.5,2.49-6.62,1.99-8.97,4.84-.29,.35-1.31,.41-1.81,.2-.87-.38-.87-1.3-.6-2.13,.2-.62,.37-1.3,.75-1.82,4.11-5.73,6.15-12.67,10.56-18.23,.34-.32,.69-.63,1.03-.95Z"/><path class="cls-48" d="M291.84,125.67c2.18,3.51,6.12,3.71,9.48,4.94,2.68,.99,5.33,1.89,7.12,4.29,1.33,1.79,2.72,4.01,1.47,5.95-3.69,5.74-4.61,12.78-9.03,18.2-3.05,3.75-5.49,7.94-11.1,8.2-1.31,.06-2.34,1.08-3.18,2.2-2.95,3.95-10.64,4.47-13.98,1.03-1.36-1.4-.97-2.82,.1-3.99,5.84-6.42,4.66-13.73,2.52-20.99-1.75-5.95-.69-11.4,1.61-16.87,1.19-2.84,3.04-3.79,5.89-2.5,3.12,1.41,6.14,1.08,9.1-.47,0,0,0,0,0,0Z"/><path class="cls-76" d="M278.9,115.82c.11-5.85,5.18-6.85,8.95-9.13,4.81-3.6,13.88-2.12,16.95,2.75,.67,1.05,.73,2.13,.19,3.24-1.93,1.09-2.91-.71-4.3-1.37-3.5-1.66-6.95-3.85-11-1.45-.71,2.76,.68,3.69,3.11,3.2,2.68-.55,4.8-.18,6.11,2.46-.49,5.46-5.19,7.87-10.53,4.96-2.45-1.34-4.77-1.75-7.38-1.57-.7-1.03-1.4-2.06-2.1-3.08Z"/><path class="cls-14" d="M278.89,179.66c-4.15,1.18-8.26,2.52-12.46,3.47-2.15,.49-4.77,1.97-6.61-.05-1.99-2.19,.77-4.27,1.01-6.47,1.02,0,2.04-.02,3.06-.03,.82-1.27,1.96-1.59,3.4-1.24,3.92,.93,7.77,2.14,11.78,2.66,.7,.09,.9,.85,.79,1.57-.32,.02-.65,.05-.97,.09Z"/><path class="cls-33" d="M263.08,158.5c-1.81,0-3.63,.08-5.44-.03-1.3-.08-2.95-.24-2.78-2.05,.16-1.67,1.78-1.68,3.09-1.78,.65-.05,1.38-.13,1.96,.09,5.16,1.98,9.37,2.37,10.38-4.85,.24-1.74,1.61-1.12,2.36,.15,2.12,3.59,.14,7.9-4.16,8.67-1.75,.31-3.61,.05-5.42,.05,0-.08,0-.17,0-.25Z"/><path class="cls-48" d="M281.01,118.91c1.95-2.94,3.35-6.49,6.68-.61,2.45,4.34,6.91,2.97,10.14-2.62,.18-1.76,1.05-1.75,2.26-.88,1.29,1.07,1.45,2.38,.83,3.86-2.04,3.54-5.31,4.33-9.06,4.04-3.31-2.14-7.75-1.06-10.85-3.79Z"/><path class="cls-3" d="M279.86,179.56c-5.43-.41-10.47-2.94-15.97-2.99-2.24-1.63-5.23-.27-8.37-2.27,4.23-1.18,7.8-.51,11.29-.67,3.94,.99,7.89,1.96,11.82,2.99,1.6,.42,3.96,.65,1.24,2.94Z"/><path class="cls-104" d="M232.7,108.43c-.98,.39-1.78,1.52-3.47,.79,1.8-3.25,4.37-4.73,7.74-4.25,3.36,.48,6.29,2.13,8.39,4.87,.78,1.02,.01,1.92-1.05,2.29-1.74,.61-3.04,3.01-5.34,1.41-1.54-1.07-2.71-2.4-3.1-4.34-.22-1.08-.37-2.52-2.17-1.72-.09,.58-.42,.89-1,.95Z"/><path class="cls-5" d="M232.7,108.43c.33-.32,.67-.63,1-.95,1.5,2.25,1.07,4.95,2.26,7.72-5-.96-3.38-4.19-3.27-6.78Z"/><path class="cls-43" d="M304.99,112.68c-4.5-5.47-10.64-6.24-17.14-6,.35-1.31,.7-2.62,1.04-3.93,9.03-3.25,17.13-.57,24.94,3.93-.45,2.2-2.4,3.45-3.36,5.29-1.57,2.99-3.41,2.36-5.48,.71Z"/><path class="cls-64" d="M300.08,114.8c-.75,.29-1.5,.58-2.26,.88-1.43-.7-2.85-.88-4.02,.44-1.82,2.06-3.44,2.88-5.37-.03-1.76-2.66-2.01-4.72,1.26-6.23,3.5,1.55,8.69-.45,10.38,4.93Z"/><path class="cls-35" d="M326.81,114.68c3.76,6.7,3.77,13.75,2,20.97,.81-7.13-1.37-13.98-2-20.97Z"/></g><rect class="cls-108" y="73.78" width="361.93" height="72.67"/><g><path class="cls-1" d="M17.34,88.86c2.28-.48,5.88-.84,9.54-.84,5.22,0,8.58,.9,11.1,2.94,2.1,1.56,3.36,3.96,3.36,7.14,0,3.9-2.58,7.32-6.84,8.88v.12c3.84,.96,8.34,4.14,8.34,10.14,0,3.48-1.38,6.12-3.42,8.1-2.82,2.58-7.38,3.78-13.98,3.78-3.6,0-6.36-.24-8.1-.48v-39.78Zm5.22,16.56h4.74c5.52,0,8.76-2.88,8.76-6.78,0-4.74-3.6-6.6-8.88-6.6-2.4,0-3.78,.18-4.62,.36v13.02Zm0,19.38c1.02,.18,2.52,.24,4.38,.24,5.4,0,10.38-1.98,10.38-7.86,0-5.52-4.74-7.8-10.44-7.8h-4.32v15.42Z"/><path class="cls-1" d="M55.56,91.56c.06,1.8-1.26,3.24-3.36,3.24-1.86,0-3.18-1.44-3.18-3.24s1.38-3.3,3.3-3.3,3.24,1.44,3.24,3.3Zm-5.88,37.2v-29.04h5.28v29.04h-5.28Z"/><path class="cls-1" d="M63.72,86.16h5.28v42.6h-5.28v-42.6Z"/><path class="cls-1" d="M77.88,86.16h5.28v42.6h-5.28v-42.6Z"/><path class="cls-1" d="M94.98,115.2c.12,7.14,4.68,10.08,9.96,10.08,3.78,0,6.06-.66,8.04-1.5l.9,3.78c-1.86,.84-5.04,1.8-9.66,1.8-8.94,0-14.28-5.88-14.28-14.64s5.16-15.66,13.62-15.66c9.48,0,12,8.34,12,13.68,0,1.08-.12,1.92-.18,2.46h-20.4Zm15.48-3.78c.06-3.36-1.38-8.58-7.32-8.58-5.34,0-7.68,4.92-8.1,8.58h15.42Z"/><path class="cls-1" d="M147.18,86.16v35.1c0,2.58,.06,5.52,.24,7.5h-4.74l-.24-5.04h-.12c-1.62,3.24-5.16,5.7-9.9,5.7-7.02,0-12.42-5.94-12.42-14.76-.06-9.66,5.94-15.6,13.02-15.6,4.44,0,7.44,2.1,8.76,4.44h.12v-17.34h5.28Zm-5.28,25.38c0-.66-.06-1.56-.24-2.22-.78-3.36-3.66-6.12-7.62-6.12-5.46,0-8.7,4.8-8.7,11.22,0,5.88,2.88,10.74,8.58,10.74,3.54,0,6.78-2.34,7.74-6.3,.18-.72,.24-1.44,.24-2.28v-5.04Z"/><path class="cls-1" d="M158.88,115.2c.12,7.14,4.68,10.08,9.96,10.08,3.78,0,6.06-.66,8.04-1.5l.9,3.78c-1.86,.84-5.04,1.8-9.66,1.8-8.94,0-14.28-5.88-14.28-14.64s5.16-15.66,13.62-15.66c9.48,0,12,8.34,12,13.68,0,1.08-.12,1.92-.18,2.46h-20.4Zm15.48-3.78c.06-3.36-1.38-8.58-7.32-8.58-5.34,0-7.68,4.92-8.1,8.58h15.42Z"/><path class="cls-1" d="M198.72,109.2c0-3.72-.12-6.72-.24-9.48h4.74l.24,4.98h.12c2.16-3.54,5.58-5.64,10.32-5.64,7.02,0,12.3,5.94,12.3,14.76,0,10.44-6.36,15.6-13.2,15.6-3.84,0-7.2-1.68-8.94-4.56h-.12v15.78h-5.22v-31.44Zm5.22,7.74c0,.78,.12,1.5,.24,2.16,.96,3.66,4.14,6.18,7.92,6.18,5.58,0,8.82-4.56,8.82-11.22,0-5.82-3.06-10.8-8.64-10.8-3.6,0-6.96,2.58-7.98,6.54-.18,.66-.36,1.44-.36,2.16v4.98Z"/><path class="cls-1" d="M248.94,128.76l-.42-3.66h-.18c-1.62,2.28-4.74,4.32-8.88,4.32-5.88,0-8.88-4.14-8.88-8.34,0-7.02,6.24-10.86,17.46-10.8v-.6c0-2.4-.66-6.72-6.6-6.72-2.7,0-5.52,.84-7.56,2.16l-1.2-3.48c2.4-1.56,5.88-2.58,9.54-2.58,8.88,0,11.04,6.06,11.04,11.88v10.86c0,2.52,.12,4.98,.48,6.96h-4.8Zm-.78-14.82c-5.76-.12-12.3,.9-12.3,6.54,0,3.42,2.28,5.04,4.98,5.04,3.78,0,6.18-2.4,7.02-4.86,.18-.54,.3-1.14,.3-1.68v-5.04Zm-11.34-22.86c0-3.18,2.34-5.7,6.12-5.7s5.94,2.46,5.94,5.64-2.58,5.52-6,5.52c-3.6,0-6.06-2.4-6.06-5.46Zm9.12-.12c0-1.8-1.2-3.3-3.12-3.3s-2.94,1.56-2.94,3.42c0,1.56,1.2,3.24,2.94,3.24,1.92,0,3.12-1.56,3.12-3.36Z"/><path class="cls-1" d="M276.54,99.72l5.7,16.32c.96,2.64,1.74,5.04,2.34,7.44h.18c.66-2.4,1.5-4.8,2.46-7.44l5.64-16.32h5.52l-11.4,29.04h-5.04l-11.04-29.04h5.64Z"/><path class="cls-1" d="M305.69,115.2c.12,7.14,4.68,10.08,9.96,10.08,3.78,0,6.06-.66,8.04-1.5l.9,3.78c-1.86,.84-5.04,1.8-9.66,1.8-8.94,0-14.28-5.88-14.28-14.64s5.16-15.66,13.62-15.66c9.48,0,12,8.34,12,13.68,0,1.08-.12,1.92-.18,2.46h-20.4Zm15.48-3.78c.06-3.36-1.38-8.58-7.32-8.58-5.34,0-7.68,4.92-8.1,8.58h15.42Z"/><path class="cls-1" d="M325.73,137.16c2.4-.18,4.5-.84,5.76-2.22,1.44-1.68,1.98-3.96,1.98-10.92v-24.3h5.28v26.34c0,5.64-.9,9.3-3.48,11.94-2.34,2.34-6.18,3.3-9,3.3l-.54-4.14Zm13.62-45.6c.06,1.74-1.2,3.24-3.3,3.24-1.98,0-3.24-1.5-3.24-3.24,0-1.86,1.38-3.3,3.36-3.3s3.18,1.44,3.18,3.3Z"/></g></g></svg>